<svg xmlns="http://www.w3.org/2000/svg" enable-background="new 0 0 50 50" viewBox="0 0 50 50"><path fill="#7BB1FF" d="M46.81952,21.55746L46.7378,43.67718c0,0.4802-0.17359,0.81729-0.45957,0.97038l-1.03146,0.61284
					c0.27576-0.15309,0.42891-0.49018,0.44935-0.97038l0.09194-22.11972c0-0.94993-0.69444-2.13473-1.53186-2.63488
					L13.62922,1.83725c-0.42897-0.26528-0.7966-0.28623-1.08251-0.13264l1.04162-0.5924
					c0.27575-0.17353,0.66383-0.15309,1.09273,0.1122l30.62698,17.69817C46.15569,19.42272,46.81952,20.60752,46.81952,21.55746z"/><path fill="#3A53D0" d="M45.77784,22.18027L45.6859,44.29002c0,0.95991-0.69444,1.34836-1.52164,0.86816L13.53728,27.43956
					c-0.84765-0.4797-1.53186-1.6645-1.53186-2.21601l0.1021-22.08931c0-1.40919,0.67405-1.79764,1.53186-1.30697l30.62704,17.71812
					c0.2042,0.1127,0.40846,0.28623,0.58205,0.46973C45.39998,20.58708,45.78806,21.43479,45.77784,22.18027z"/><polygon fill="#FFF" points="44.505 21.159 13.384 3.155 13.28 25.815 44.412 43.827"/><path fill="#FEBB61" d="M42.48467,24.56273l-0.00224,0.78858l-1.7608-0.65417c-0.29104-0.1025-0.55017-0.16541-0.79991-0.19568
				c-0.12086-0.01484-0.23948-0.02233-0.35572-0.0224c-0.59618-0.00043-1.12887,0.18852-1.57005,0.52104
				c-0.27063,0.12707-1.45001,1.55939-3.73754,0.70773c-0.10158-0.03798-0.20387-0.07939-0.30688-0.12526
				c-0.288-0.12998-0.5287-0.25282-0.76952-0.39186c-1.49884-0.86536-1.84472-1.57668-3.33982-2.43987
				c-0.41589-0.24011-0.8294-0.43097-1.23365-0.5691c-0.11934-0.04067-0.2379-0.07636-0.35545-0.10794
				c-0.75917-0.20241-1.47794-0.20758-2.11036,0.01301c-0.92619,0.24348-1.63521,0.81005-3.20335,0.5146
				c-0.11481-0.02193-0.23074-0.04803-0.34745-0.07811c-0.84617-0.21852-1.66077-0.64056-2.382-1.13985
				c-0.84279-0.57696-1.1076-0.79019-1.59136-1.06949c-0.44989-0.25974-0.89638-0.45905-1.33088-0.59549
				c-0.11666-0.03661-0.23263-0.06878-0.3474-0.09623c-0.59616-0.14307-1.16448-0.1617-1.68167-0.04747l-0.47735,0.10547
				l0.00266-0.93703l0.089-0.02271c1.10058-0.23661,2.40324,0.04973,3.72791,0.81452
				c0.46612,0.26911,0.68094,0.44048,1.67587,1.11576c3.09663,2.1503,4.68334,0.7142,5.43176,0.59958
				c1.17582-0.41445,2.64386-0.20402,4.1197,0.64806c1.4909,0.86077,1.83194,1.61517,3.19268,2.40079
				c2.93703,1.69569,4.48162-0.12449,4.68658-0.19962c0.93421-0.70355,1.90726-0.58554,2.89527-0.23327L42.48467,24.56273z"/><path fill="#4C5671" d="M40.75188,39.23671l-0.0715,0.60237L17.02849,26.15456l0.04083-0.32662l-0.15321-0.09175l0.02044-6.115
			c0.12254,0.03092,0.23487,0.06133,0.34725,0.10222l-0.02044,5.931l5.30024,3.06372l0.0306-6.19628
			c0.11238,0.03042,0.23493,0.06133,0.34725,0.08128l-0.03067,6.31895l5.30024,3.06372l0.04089-9.91323
			c0.12254,0.03042,0.23487,0.07131,0.35741,0.1122l-0.04083,10.00548l5.30024,3.06372l0.03061-9.68884
			c0.02044,0,0.04089,0.00997,0.05105,0.02044c0.10216,0.04039,0.20426,0.08128,0.30642,0.12217l-0.04089,9.75017l5.30024,3.06372
			l0.05105-14.03908c0.11238,0,0.23493,0,0.35747,0.02044l-0.05105,14.22309L40.75188,39.23671z"/><path fill="#4C5671" d="M20.12282,23.3546v1.31744l-0.0306,11.12145c0,0.45975-0.32681,0.63329-0.71488,0.40839
					l-15.4922-8.94582c-0.38808-0.22489-0.70466-0.76593-0.70466-1.22569l0.0306-11.12145l0.01022-1.31744
					c0-0.44929,0.31658-0.62282,0.70466-0.39792l15.4922,8.93585C19.80623,22.3538,20.12282,22.90531,20.12282,23.3546z"/><polygon fill="#FFF" points="19.545 24.343 19.513 35.614 3.759 26.518 3.79 15.247" enable-background="new"/><path fill="#272E3A" d="M20.82747,22.9462l-0.0306,12.43888c0,0.22439-0.08172,0.37748-0.20426,0.45926l-0.70466,0.40889
						c0.12255-0.0718,0.20426-0.23536,0.20426-0.45975l0.0306-12.43889c0.01022-0.43881-0.31658-1.0008-0.70466-1.22519
						l-15.4922-8.93585c-0.15321-0.09225-0.29614-0.12267-0.41874-0.09225l0.623-0.36751
						c0.12254-0.08178,0.30636-0.07131,0.5004,0.04089l15.4922,8.94583C20.51089,21.94541,20.8377,22.50739,20.82747,22.9462z" enable-background="new"/><path fill="#ED5D71" d="M17.78798,26.39605c0.39405,0.2275,0.77757,0.79472,0.77602,1.3406l-0.0078,2.75266
					c0.00086-0.30227-0.38213-0.71521-0.77631-0.94279c-0.22218-0.12828-0.44794-0.19766-0.61045-0.15525
					c-1.46194,0.26719-1.57271,0.71259-2.45205,0.2049c-1.10266-0.63662-0.95355-1.52177-2.49447-2.41142
					c-1.32102-0.76269-1.62912-0.16281-2.79212-0.02908c-0.43108,0.1028-1.24184-0.50851-1.40944-0.99002
					c-0.17241-0.49187-0.98509-1.08628-1.40304-0.98991l-2.34672,0.52865l2.35098-2.03145
					c0.16598-0.1436,0.39851-0.12089,0.62823,0.01174c0.99952,0.57707,0.54973,1.66828,1.55204,2.24696
					c0.66032,0.38124,0.76733-0.27218,2.05679-1.24799c0.91863-0.80626,2.44076,0.68271,2.90831,1.99124
					c0.19821,0.55345,0.57512,0.99853,0.95516,1.21795c0.89214,0.51508,1.00185-0.35192,2.45481-1.49246
					C17.33975,26.24742,17.56552,26.26761,17.78798,26.39605z"/><path fill="#FEBB61" d="M17.77988,29.54652c0.39417,0.22758,0.77717,0.64051,0.77631,0.94279l-0.01165,4.1089l-14.2748-8.24156
					l0.00185-0.65227l2.34672-0.52865c0.43044-0.09925,1.23563,0.51232,1.40304,0.98991
					c0.17184,0.49368,0.98824,1.09047,1.40944,0.99002c1.1476-0.13196,1.4678-0.73552,2.79212,0.02908
					c1.54092,0.88965,1.37644,1.76593,2.49447,2.41142c0.88158,0.50898,0.9864,0.06296,2.45205-0.2049
					C17.33195,29.34886,17.5577,29.41824,17.77988,29.54652z"/><path fill="#FFF" d="M18.63674 22.36332c.2201.12708.39815.43902.39743.69197-.00072.25295-.17993.35505-.40004.22797-.22329-.12892-.40135-.43728-.40063-.69023S18.41345 22.2344 18.63674 22.36332zM17.32251 21.60454c.2201.12708.39815.43902.39743.69197-.00072.25295-.17993.35505-.40004.22797-.2201-.12708-.39816-.43544-.39744-.68839C16.92318 21.58314 17.1024 21.47746 17.32251 21.60454zM16.00826 20.84576c.22329.12892.40133.44086.40062.69381-.00072.25295-.17993.35505-.40323.22613-.2201-.12708-.39816-.43544-.39744-.68839C15.60893 20.82436 15.78816 20.71869 16.00826 20.84576z"/><polygon fill="#E34454" points="11.939 35.321 12.711 34.877 12.703 33.537 11.939 33.981"/><polygon fill="#E34454" points="5.313 34.877 6.078 35.321 6.069 33.981 5.313 33.537"/><path fill="#E34454" d="M10.7549,36.25732v-1.33981c0-0.25488-0.17259-0.51778-0.50965-0.71526
				c-0.09864-0.0574-0.19728-0.09834-0.31237-0.13968c-0.67407-0.24644-1.57828-0.19707-2.17011,0.13968
				c-0.35352,0.19748-0.52611,0.46038-0.52611,0.72369l0.00823,1.33981c0-0.2629,0.17259-0.52621,0.51788-0.72329
				c0.69047-0.39456,1.80024-0.39456,2.48248,0C10.59054,35.73954,10.7549,36.00285,10.7549,36.25732z"/><path fill="#E34454" d="M4.68835,35.45215v1.33981h0.60834v0.85494l1.30699,0.7562l0.76448-0.44392
				c0.22196,0.07385,0.4521,0.13165,0.69875,0.17259v0.62455h1.84133l0.00823-0.62455
				c0.2466-0.04094,0.48497-0.09874,0.70693-0.17259l0.75625,0.44392l1.30704-0.7562v-0.85494h0.61652l0.00823-1.06045
				l-0.00823-1.33981l-0.00823,1.06045h-1.07685c-0.05755,0.14771-0.16442,0.28739-0.29592,0.41904l0.00818,0.8714l-0.55074,0.3207
				l-0.76448-0.44393c-0.21373,0.07386-0.4521,0.13125-0.70693,0.1726v0.62455H8.06691v-0.62455
				c-0.24665-0.04134-0.48502-0.09874-0.69875-0.1726l-0.77271,0.44393l-0.53429-0.31268v-0.88745
				c-0.12332-0.12362-0.22196-0.26331-0.29597-0.41101H4.68835z"/><path fill="#FE91AB" d="M5.29425,36.30685l0.76625-0.4424c-0.12476-0.12722-0.22345-0.2636-0.29604-0.40916l-1.07748,0.00007
					l0.01124-1.06963l1.07752-0.00008c0.0689-0.14235,0.16386-0.28174,0.29517-0.40606L5.30965,33.5372l1.30686-0.75451
					l0.76126,0.44239c0.22032-0.07869,0.46126-0.13324,0.70724-0.17268l0.00366-0.62414l1.84141,0.00001l-0.00366,0.62412
					c0.25103,0.04253,0.49141,0.0971,0.7054,0.17282l0.7715-0.44543l1.30356,0.75755l-0.7715,0.44542
					c0.13001,0.1242,0.22343,0.26361,0.29067,0.40603l1.07751-0.00007l-0.00602,1.0666l-1.07752,0.00008
					c-0.06351,0.14548-0.16386,0.28173-0.29533,0.41206l0.76126,0.44239l-1.30686,0.75452l-0.76126-0.44239
					c-0.22015,0.07269-0.4557,0.13037-0.70707,0.16668l-0.00366,0.62414l-1.84663,0.00302l0.00363-0.62412
					C7.81842,36.75229,7.5833,36.69468,7.36406,36.622l-0.76625,0.44239L5.29425,36.30685z M10.23621,35.64019
					c0.68755-0.39696,0.69111-1.03939,0.00822-1.43625c-0.68827-0.39998-1.79737-0.40002-2.48492-0.00306
					c-0.68752,0.39694-0.69633,1.0424-0.00806,1.44238C8.43434,36.04012,9.54869,36.03713,10.23621,35.64019"/><path fill="#FEBB61" d="M27.30229,35.40724l0,5.80742c-0.00073,0.25694-0.16959,0.51349-0.50697,0.70955
						c-0.67902,0.3946-1.78372,0.39461-2.46719,0.00001c-0.34398-0.1986-0.51575-0.45926-0.51501-0.71952l0-5.80741
						c-0.00074,0.26026,0.17103,0.52092,0.51501,0.71952c0.68346,0.3946,1.78817,0.39459,2.46719-0.00001
						C27.13271,35.92073,27.30157,35.66418,27.30229,35.40724z"/><path fill="#FFDD94" d="M26.78728,34.68771c-0.68359-0.39467-1.78804-0.39467-2.46719,0.00001
					c-0.67902,0.39461-0.67554,1.03442,0.00805,1.42909c0.68347,0.3946,1.78817,0.39458,2.46719-0.00001
					C27.47448,35.72212,27.47075,35.08231,26.78728,34.68771z"/><path fill="#5FAF5F" d="M39.01436,42.72227l0,5.27219c-0.00073,0.25694-0.16959,0.51349-0.50697,0.70955
						c-0.67902,0.3946-1.78373,0.39461-2.46719,0.00001c-0.34398-0.1986-0.51574-0.45926-0.51501-0.71952l0-5.27219
						c-0.00074,0.26026,0.17103,0.52092,0.51501,0.71952c0.68346,0.3946,1.78817,0.39459,2.46719-0.00001
						C38.84477,43.23576,39.01363,42.97921,39.01436,42.72227z"/><path fill="#96D696" d="M38.49935,42.00274c-0.68359-0.39467-1.78804-0.39467-2.46719,0.00001
					c-0.67902,0.3946-0.67554,1.03442,0.00804,1.42909c0.68347,0.3946,1.78817,0.39459,2.46719-0.00001
					C39.18654,43.03714,39.18282,42.39733,38.49935,42.00274z"/><g><path fill="#ED5D71" d="M35.11034,37.78622l0,7.94831c-0.00073,0.25694-0.16959,0.51349-0.50697,0.70955
						c-0.67902,0.3946-1.78373,0.39461-2.46719,0.00001c-0.34398-0.19859-0.51574-0.45926-0.51501-0.71952l0-7.94831
						c-0.00074,0.26026,0.17103,0.52092,0.51501,0.71952c0.68346,0.3946,1.78817,0.39459,2.46719-0.00001
						C34.94075,38.29971,35.10961,38.04316,35.11034,37.78622z"/><path fill="#FE91AB" d="M34.59533,37.06668c-0.68359-0.39467-1.78804-0.39467-2.46719,0.00001
					c-0.67902,0.3946-0.67555,1.03442,0.00805,1.42909c0.68346,0.3946,1.78817,0.39459,2.46719-0.00001
					C35.28252,38.10109,35.27879,37.46128,34.59533,37.06668z"/></g><g><path fill="#5793FB" d="M31.20632,38.73762l0,4.73697c-0.00073,0.25694-0.16959,0.51349-0.50697,0.70955
						c-0.67902,0.3946-1.78372,0.39461-2.46719,0.00001c-0.34398-0.19859-0.51575-0.45926-0.51501-0.71952l0-4.73697
						c-0.00074,0.26026,0.17103,0.52092,0.51501,0.71952c0.68347,0.3946,1.78817,0.39459,2.46719-0.00001
						C31.03673,39.25111,31.20559,38.99456,31.20632,38.73762z"/><path fill="#7BB1FF" d="M30.69131,38.01809c-0.68359-0.39467-1.78804-0.39467-2.46719,0.00001
					c-0.67902,0.3946-0.67554,1.03442,0.00804,1.42909c0.68347,0.3946,1.78817,0.39459,2.46719-0.00001
					C31.3785,39.0525,31.37477,38.41269,30.69131,38.01809z"/></g><g><polygon fill="#4C5671" points="18.511 15.822 18.508 17.206 16.409 15.994 16.412 14.61"/></g><g><polygon fill="#4C5671" points="23.786 19.923 23.784 21.307 21.684 20.095 21.687 18.71"/></g><g><polygon fill="#4C5671" points="29.493 18.624 29.49 20.009 27.391 18.796 27.394 17.412"/></g><g><polygon fill="#4C5671" points="35.141 22.737 35.138 24.121 33.039 22.909 33.042 21.525"/></g><g><polygon fill="#4C5671" points="41.141 21.068 41.138 22.452 39.039 21.24 39.041 19.856"/></g></svg>