<svg xmlns="http://www.w3.org/2000/svg" enable-background="new 0 0 64 64" viewBox="0 0 64 64"><path fill="#2a2f64" d="M61.75,1.14H35c-1.24,0-2.25,1.01-2.25,2.25v6.96c0,1.23,1.01,2.24,2.25,2.24h26.75
		c1.24,0,2.25-1.01,2.25-2.24V3.39C64,2.15,62.99,1.14,61.75,1.14z M62.06,10.36c0,0.16-0.14,0.3-0.31,0.3H35
		c-0.16,0-0.31-0.14-0.31-0.3V3.39c0-0.17,0.15-0.31,0.31-0.31h26.75c0.17,0,0.31,0.14,0.31,0.31V10.36z"/><path fill="#53be9e" d="M61.75,3.08H35c-0.16,0-0.31,0.14-0.31,0.31v6.96c0,0.16,0.15,0.3,0.31,0.3h26.75c0.17,0,0.31-0.14,0.31-0.3
		V3.39C62.06,3.22,61.92,3.08,61.75,3.08z M49.57,8.57c0,0.54-0.44,0.97-0.97,0.97H37.34c-0.53,0-0.97-0.43-0.97-0.97v-3.4
		c0-0.53,0.44-0.97,0.97-0.97H48.6c0.53,0,0.97,0.44,0.97,0.97V8.57z M57.59,9.47c-1.44,0-2.6-1.17-2.6-2.6c0-1.44,1.16-2.6,2.6-2.6
		c1.43,0,2.59,1.16,2.59,2.6C60.18,8.3,59.02,9.47,57.59,9.47z"/><path fill="#3ca480" d="M62.06,9.17v1.18c0,0.16-0.14,0.3-0.31,0.3H35c-0.16,0-0.31-0.14-0.31-0.3V9.17c0,0.16,0.15,0.3,0.31,0.3h2
		c0.11,0.05,0.22,0.07,0.35,0.07H48.6c0.13,0,0.24-0.02,0.35-0.07h12.8C61.92,9.47,62.06,9.34,62.06,9.17z"/><path fill="#2a2f64" d="M48.6,4.2H37.34c-0.53,0-0.97,0.44-0.97,0.97v3.4c0,0.54,0.44,0.97,0.97,0.97H48.6c0.53,0,0.97-0.43,0.97-0.97
		v-3.4C49.57,4.64,49.13,4.2,48.6,4.2z M47.63,7.6h-9.32V6.14h9.32V7.6z"/><rect width="9.32" height="1.46" x="38.31" y="6.14" fill="#edeced"/><path fill="#edeced" d="M58.24,6.88c0,0.36-0.29,0.66-0.65,0.66c-0.37,0-0.66-0.3-0.66-0.66c0-0.37,0.29-0.66,0.66-0.66
		C57.95,6.22,58.24,6.51,58.24,6.88z"/><path fill="#2a2f64" d="M57.59 4.28c-1.44 0-2.6 1.16-2.6 2.6 0 1.43 1.16 2.6 2.6 2.6 1.43 0 2.59-1.17 2.59-2.6C60.18 5.44 59.02 4.28 57.59 4.28zM57.59 7.53c-.37 0-.66-.3-.66-.66 0-.37.29-.66.66-.66.36 0 .65.29.65.66C58.24 7.23 57.95 7.53 57.59 7.53zM61.75 14.9H35c-1.24 0-2.25 1.01-2.25 2.25v6.95c0 1.24 1.01 2.25 2.25 2.25h26.75c1.24 0 2.25-1.01 2.25-2.25v-6.95C64 15.91 62.99 14.9 61.75 14.9zM62.06 24.11c0 .17-.14.31-.31.31H35c-.16 0-.31-.14-.31-.31v-6.95c0-.17.15-.31.31-.31h26.75c.17 0 .31.14.31.31V24.11z"/><path fill="#ffdb7c" d="M61.75,16.84H35c-0.16,0-0.31,0.14-0.31,0.31v6.95c0,0.17,0.15,0.31,0.31,0.31h26.75
		c0.17,0,0.31-0.14,0.31-0.31v-6.95C62.06,16.98,61.92,16.84,61.75,16.84z M49.57,22.33c0,0.53-0.44,0.97-0.97,0.97H37.34
		c-0.53,0-0.97-0.44-0.97-0.97v-3.4c0-0.54,0.44-0.97,0.97-0.97H48.6c0.53,0,0.97,0.43,0.97,0.97V22.33z M57.59,23.22
		c-1.44,0-2.6-1.16-2.6-2.6c0-1.43,1.16-2.6,2.6-2.6c1.43,0,2.59,1.17,2.59,2.6C60.18,22.06,59.02,23.22,57.59,23.22z"/><path fill="#2a2f64" d="M48.6,17.96H37.34c-0.53,0-0.97,0.43-0.97,0.97v3.4c0,0.53,0.44,0.97,0.97,0.97H48.6
		c0.53,0,0.97-0.44,0.97-0.97v-3.4C49.57,18.39,49.13,17.96,48.6,17.96z M47.63,21.36h-9.32V19.9h9.32V21.36z"/><rect width="9.32" height="1.46" x="38.31" y="19.9" fill="#edeced"/><path fill="#2a2f64" d="M57.59,18.03c-1.44,0-2.6,1.17-2.6,2.6c0,1.44,1.16,2.6,2.6,2.6c1.43,0,2.59-1.16,2.59-2.6
		C60.18,19.2,59.02,18.03,57.59,18.03z M57.59,21.28c-0.37,0-0.66-0.29-0.66-0.66c0-0.36,0.29-0.66,0.66-0.66
		c0.36,0,0.65,0.3,0.65,0.66C58.24,20.99,57.95,21.28,57.59,21.28z"/><path fill="#edeced" d="M58.24,20.63c0,0.37-0.29,0.66-0.65,0.66c-0.37,0-0.66-0.29-0.66-0.66c0-0.36,0.29-0.66,0.66-0.66
		C57.95,19.97,58.24,20.27,58.24,20.63z"/><path fill="#2a2f64" d="M61.75,28.65H35c-1.24,0-2.25,1.01-2.25,2.25v6.96c0,1.24,1.01,2.25,2.25,2.25h26.75
		c1.24,0,2.25-1.01,2.25-2.25V30.9C64,29.66,62.99,28.65,61.75,28.65z M62.06,37.87c0,0.16-0.14,0.31-0.31,0.31H35
		c-0.16,0-0.31-0.15-0.31-0.31V30.9c0-0.16,0.15-0.31,0.31-0.31h26.75c0.17,0,0.31,0.15,0.31,0.31V37.87z"/><path fill="#4ebce5" d="M61.75,30.59H35c-0.16,0-0.31,0.15-0.31,0.31v6.96c0,0.16,0.15,0.31,0.31,0.31h26.75
		c0.17,0,0.31-0.15,0.31-0.31V30.9C62.06,30.74,61.92,30.59,61.75,30.59z M49.57,36.09c0,0.53-0.44,0.97-0.97,0.97H37.34
		c-0.53,0-0.97-0.44-0.97-0.97v-3.41c0-0.53,0.44-0.97,0.97-0.97H48.6c0.53,0,0.97,0.44,0.97,0.97V36.09z M57.59,36.98
		c-1.44,0-2.6-1.16-2.6-2.6c0-1.44,1.16-2.6,2.6-2.6c1.43,0,2.59,1.16,2.59,2.6C60.18,35.82,59.02,36.98,57.59,36.98z"/><path fill="#2a2f64" d="M48.6,31.71H37.34c-0.53,0-0.97,0.44-0.97,0.97v3.41c0,0.53,0.44,0.97,0.97,0.97H48.6
		c0.53,0,0.97-0.44,0.97-0.97v-3.41C49.57,32.15,49.13,31.71,48.6,31.71z M47.63,35.12h-9.32v-1.47h9.32V35.12z"/><rect width="9.32" height="1.47" x="38.31" y="33.65" fill="#edeced"/><path fill="#2a2f64" d="M57.59,31.79c-1.44,0-2.6,1.16-2.6,2.6c0,1.44,1.16,2.6,2.6,2.6c1.43,0,2.59-1.16,2.59-2.6
		C60.18,32.95,59.02,31.79,57.59,31.79z M57.59,35.04c-0.37,0-0.66-0.3-0.66-0.66c0-0.36,0.29-0.66,0.66-0.66
		c0.36,0,0.65,0.3,0.65,0.66C58.24,34.74,57.95,35.04,57.59,35.04z"/><path fill="#edeced" d="M58.24,34.39c0,0.36-0.29,0.66-0.65,0.66c-0.37,0-0.66-0.3-0.66-0.66c0-0.36,0.29-0.66,0.66-0.66
		C57.95,33.73,58.24,34.03,58.24,34.39z"/><path fill="#2a2f64" d="M27.12,25.44H2.57C1.15,25.44,0,26.6,0,28.01v32.27c0,1.42,1.15,2.57,2.57,2.57h24.55
		c1.42,0,2.57-1.15,2.57-2.57V28.01C29.69,26.6,28.54,25.44,27.12,25.44z M27.75,60.29c0,0.35-0.28,0.63-0.63,0.63H2.57
		c-0.35,0-0.63-0.28-0.63-0.63V28.01c0-0.35,0.28-0.63,0.63-0.63h24.55c0.35,0,0.63,0.28,0.63,0.63V60.29z"/><path fill="#edeced" d="M27.12,27.38H2.57c-0.35,0-0.63,0.28-0.63,0.63v32.27c0,0.35,0.28,0.63,0.63,0.63h24.55
		c0.35,0,0.63-0.28,0.63-0.63V28.01C27.75,27.67,27.47,27.38,27.12,27.38z M17.53,58.34c0,0.66-0.53,1.19-1.19,1.19h-2.99
		c-0.65,0-1.18-0.53-1.18-1.19v-2.25c0-0.65,0.53-1.19,1.18-1.19h2.99c0.66,0,1.19,0.54,1.19,1.19V58.34z M25.49,53.07
		c0,0.53-0.44,0.97-0.97,0.97H5.17c-0.53,0-0.97-0.44-0.97-0.97V30.61c0-0.53,0.44-0.97,0.97-0.97h19.36c0.53,0,0.97,0.44,0.97,0.97
		V53.07z"/><path fill="#d5d6d5" d="M27.12,27.38H2.57c-0.35,0-0.63,0.28-0.63,0.63v32.27c0,0.35,0.28,0.63,0.63,0.63h24.55
		c0.35,0,0.63-0.28,0.63-0.63V28.01C27.75,27.67,27.47,27.38,27.12,27.38z M26.64,59.22c0,0.32-0.26,0.58-0.58,0.58H3.64
		c-0.32,0-0.58-0.26-0.58-0.58V29.08c0-0.32,0.26-0.58,0.58-0.58h22.42c0.32,0,0.58,0.26,0.58,0.58V59.22z"/><path fill="#2a2f64" d="M24.52,29.64H5.17c-0.53,0-0.97,0.44-0.97,0.97v22.46c0,0.53,0.44,0.97,0.97,0.97h19.36
		c0.53,0,0.97-0.44,0.97-0.97V30.61C25.49,30.08,25.06,29.64,24.52,29.64z M23.55,52.1H6.14V31.58h17.42V52.1z"/><rect width="17.42" height="20.52" x="6.14" y="31.58" fill="#f16e61"/><path fill="#e25e5a" d="M6.14,31.58V52.1h17.42V31.58H6.14z M22.61,51.18H7.08V32.5h15.53V51.18z"/><path fill="#2a2f64" d="M16.34,54.89h-2.99c-0.65,0-1.18,0.54-1.18,1.19v2.25c0,0.66,0.53,1.19,1.18,1.19h2.99
		c0.66,0,1.19-0.53,1.19-1.19v-2.25C17.53,55.44,17,54.89,16.34,54.89z M15.59,57.59h-1.48v-0.76h1.48V57.59z"/><rect width="1.48" height=".76" x="14.11" y="56.83" fill="#ffdb7c"/><path fill="#2a2f64" d="M48.38,41.85c-0.54,0-0.97,0.43-0.97,0.97v12.85H34.32c-0.54,0-0.97,0.43-0.97,0.97s0.43,0.97,0.97,0.97h14.06
		c0.54,0,0.97-0.43,0.97-0.97V42.82C49.35,42.28,48.91,41.85,48.38,41.85z"/><path fill="#ebc15c" d="M62.06,22.93v1.18c0,0.16-0.14,0.3-0.31,0.3H35c-0.16,0-0.31-0.14-0.31-0.3v-1.18c0,0.16,0.15,0.3,0.31,0.3h2
		c0.11,0.05,0.22,0.07,0.35,0.07H48.6c0.13,0,0.24-0.02,0.35-0.07h12.8C61.92,23.23,62.06,23.1,62.06,22.93z"/><path fill="#36a8d9" d="M62.06,36.69v1.18c0,0.16-0.14,0.3-0.31,0.3H35c-0.16,0-0.31-0.14-0.31-0.3v-1.18c0,0.16,0.15,0.3,0.31,0.3h2
		c0.11,0.05,0.22,0.07,0.35,0.07H48.6c0.13,0,0.24-0.02,0.35-0.07h12.8C61.92,36.99,62.06,36.86,62.06,36.69z"/></svg>