<svg xmlns="http://www.w3.org/2000/svg" enable-background="new 0 0 512 512" viewBox="0 0 512 512"><rect width="36.2" height="155.1" x="209.3" y="166.7" fill="#5AC8AE"/><path fill="#E39A61" d="M228.7,314.4c78.3,0,142.8,36.5,151.1,83.4c-9.8,5.5-18,12.4-25.8,19.9c-3.1,2.9-6.2,6-9.5,9H122.2   c-15.1-9.9-29.4-20.7-44.2-30.9C87.9,349.9,151.5,314.4,228.7,314.4z"/><path fill="#F0B972" d="M228.7,319.3c-74.9,0-136.9,33.4-149.5,77.4c-0.4-0.3-0.8-0.6-1.2-0.8c9.8-45.9,73.4-81.4,150.7-81.4   c78.3,0,142.8,36.5,151.1,83.4c-0.4,0.2-0.7,0.5-1.1,0.7C367.4,353.7,304.6,319.3,228.7,319.3z"/><path fill="#FBD984" d="M19,358.6c6-6.6,15.6-9.1,24.2-6.2l109.3,36.5c5,17.2,21.3,29.9,40.8,29.9H274v-10.2h-80.7   c-17.6,0-31.9-13.7-31.9-30.7s14.3-30.7,31.9-30.7h106.7l59.4-32.8h11h52.8v133.7h-47.1l-129.5,48.5c-8,3-17,2.5-24.6-1.5   L25.1,391.6C12.6,385,9.6,368.9,19,358.6z"/><rect width="75.4" height="192.2" x="423.2" y="295.6" fill="#445C6C"/><rect width="75.4" height="5.7" x="423.2" y="295.6" fill="#566E7C"/><ellipse cx="465.1" cy="460.9" fill="#788D9A" rx="12.3" ry="11.8"/><path fill="#5AC8AE" d="M318.1 13.5C258 13.5 209.3 60.3 209.3 118v54.4h56.6c60.1 0 108.8-46.8 108.8-104.5V13.5H318.1zM102 105c60.1 0 108.8 46.8 108.8 104.5V264h-56.6C94 264 45.3 217.2 45.3 159.5V105H102z"/><path fill="#7ADDC3" d="M318.1 13.5C258 13.5 209.3 60.3 209.3 118v8.8c0-57.7 48.7-104.5 108.8-104.5h56.6v-8.8H318.1zM102 105H45.3v8.8H102c60.1 0 108.8 46.8 108.8 104.5v-8.8C210.8 151.8 162.1 105 102 105z"/><polygon fill="#51AFA8" points="340.2 88.8 301.6 88.8 340.1 51.7 334 45.8 262.9 114.1 259.8 64.4 251.1 64.9 254.6 122.1 224.3 151.2 230.5 157.1 292.8 97.2 340.2 97.2"/><polygon fill="#51AFA8" points="70.1 169.9 108.7 169.9 70.1 132.8 76.3 126.9 147.4 195.2 150.4 145.4 159.2 145.9 155.7 203.1 186 232.3 179.8 238.2 117.4 178.2 70.1 178.2"/></svg>