<svg xmlns="http://www.w3.org/2000/svg" width="702" height="505.13" viewBox="0 0 702 505.13">
  <g id="password-security" transform="translate(0 -40.12)">
    <path id="Path_112" data-name="Path 112" d="M728.985,273.188c-.306-2.439,2.012-4.6,4.448-4.885s4.83.839,6.864,2.226a41.159,41.159,0,0,1,8.3,7.967q-1.492-5.334-2.61-10.754-.744-3.577-1.331-7.19a28.012,28.012,0,0,1-16.08-2.915c-1.86-.964-3.783-2.4-4.039-4.482-.3-2.43,2.02-4.591,4.45-4.883s4.816.823,6.84,2.2a41.79,41.79,0,0,1,8.543,8.259,143.226,143.226,0,0,1-1.668-22.459,28.019,28.019,0,0,1-15.172-5.414c-1.684-1.247-3.355-2.971-3.278-5.066.09-2.446,2.723-4.213,5.169-4.115s4.624,1.575,6.4,3.257a40.764,40.764,0,0,1,6.91,9.147c.184-7.916,1.1-16.111,4.189-23.427.064-.152.136-.3.2-.454a28.019,28.019,0,0,1-14.422-7.561c-1.489-1.475-2.9-3.421-2.522-5.482.439-2.409,3.3-3.781,5.7-3.335s4.352,2.22,5.874,4.138a43.349,43.349,0,0,1,5.923,10.982c3.8-8.354,9.155-16.043,12.661-24.515a28,28,0,0,1-14.7-7.61c-1.489-1.474-2.9-3.42-2.521-5.482.438-2.408,3.3-3.781,5.7-3.335s4.352,2.22,5.874,4.138c2.754,3.47,4.4,7.247,6.054,11.3a48.523,48.523,0,0,0,2.09-6.577,37.25,37.25,0,0,0,.483-14.036,28,28,0,0,1-16.551-3.529c-1.818-1.042-3.68-2.559-3.848-4.648-.2-2.44,2.211-4.5,4.652-4.691s4.777,1.025,6.742,2.485c3.6,2.679,6.184,5.957,8.867,9.5a48.691,48.691,0,0,0-9.076-20.835,28.028,28.028,0,0,1-14.7-4.588c-1.749-1.155-3.509-2.788-3.545-4.883-.041-2.448,2.493-4.353,4.941-4.386s4.7,1.326,6.57,2.909a40.337,40.337,0,0,1,7.289,8.614.981.981,0,0,1,.359.288,50.745,50.745,0,0,1,8.667,16.885c.4,1.344.757,2.709,1.061,4.087a28.027,28.027,0,0,1,6.4-13.557c1.374-1.583,3.224-3.114,5.306-2.875,2.433.28,3.988,3.042,3.7,5.473s-1.931,4.488-3.744,6.133c-3.384,3.067-7.17,4.977-11.246,6.957a37.51,37.51,0,0,1,.56,8.83,42.458,42.458,0,0,1-3,12.778,28.024,28.024,0,0,1,12.17-9.523c1.945-.781,4.29-1.3,6.033-.136,2.036,1.359,2.16,4.526.795,6.559s-3.766,3.112-6.13,3.747c-4.531,1.216-8.884,1.153-13.554,1.049-2.818,6.653-6.744,12.936-10.075,19.26-1.048,1.991-2.033,4-2.9,6.044a28,28,0,0,1,12.914-10.647c1.944-.783,4.288-1.305,6.032-.144,2.038,1.357,2.166,4.524.8,6.558s-3.762,3.117-6.125,3.755c-4.633,1.25-9.081,1.161-13.873,1.061a44.394,44.394,0,0,0-2.221,6.783,75.584,75.584,0,0,0-1.771,13.067c-.066,1.167-.109,2.336-.137,3.506a28.026,28.026,0,0,1,10.45-11.071c1.8-1.071,4.038-1.944,5.939-1.064,2.222,1.03,2.832,4.14,1.8,6.358s-3.242,3.655-5.481,4.646c-4.136,1.832-8.292,2.463-12.734,3.059a138.815,138.815,0,0,0,1.692,21.949,28.02,28.02,0,0,1,7.893-13.766c1.519-1.444,3.507-2.792,5.556-2.354,2.394.511,3.68,3.409,3.16,5.8s-2.35,4.283-4.313,5.746c-3.725,2.776-7.752,4.322-12.082,5.933q.232,1.441.484,2.876a159.294,159.294,0,0,0,3.569,15.618,28.029,28.029,0,0,1,7.8-13.36c1.519-1.444,3.506-2.792,5.556-2.354,2.394.511,3.68,3.409,3.161,5.8s-2.351,4.283-4.314,5.746c-3.623,2.7-7.53,4.237-11.724,5.8a124.257,124.257,0,0,0,6.421,17.089c.535,1.15-1.284,1.9-1.819.753a124.9,124.9,0,0,1-6.468-17.262,28.148,28.148,0,0,1-16.174-2.964C731.181,276.723,729.248,275.275,728.985,273.188ZM336.719,154.072a5.335,5.335,0,0,0-4.947-2.538,8.089,8.089,0,0,0-5.147,2.517,17.4,17.4,0,0,0-3.2,4.877,21.971,21.971,0,0,0-2.439,9.32,92.631,92.631,0,0,1-9.072-10.97c-.249-.353-.492-.711-.736-1.068l8.695-5.256a17.8,17.8,0,0,0,5.275-4.188c1.358-1.807,1.96-4.375.873-6.359a5.334,5.334,0,0,0-4.947-2.537,8.084,8.084,0,0,0-5.146,2.517,17.389,17.389,0,0,0-3.2,4.877,21.623,21.623,0,0,0-2.436,9.623,94.433,94.433,0,0,1-7.577-13.874l8.605-5.664a17.8,17.8,0,0,0,5.11-4.388c1.288-1.858,1.791-4.446.628-6.388a5.333,5.333,0,0,0-5.04-2.345,8.089,8.089,0,0,0-5.046,2.713,17.381,17.381,0,0,0-3.013,5,22.331,22.331,0,0,0-2.092,9.1,92.906,92.906,0,0,1-3.73-10.818c-.3-1.089-.575-2.186-.835-3.285l8.658-6.116a17.793,17.793,0,0,0,4.964-4.554c1.226-1.9,1.644-4.5.418-6.4a5.334,5.334,0,0,0-5.114-2.178,8.082,8.082,0,0,0-4.954,2.877,17.375,17.375,0,0,0-2.847,5.094,23.537,23.537,0,0,0-1.809,8.157,89.089,89.089,0,0,1-1.51-11.391l4.584-9.264a17.831,17.831,0,0,0,2.2-6.372c.175-2.256-.7-4.746-2.677-5.836a5.323,5.323,0,0,0-5.531.52,8.1,8.1,0,0,0-2.987,4.893,17.417,17.417,0,0,0-.081,5.838,20.808,20.808,0,0,0,3.568,10.077c0,.013,0,.024,0,.037a89.911,89.911,0,0,0,1.631,12.12,23.043,23.043,0,0,0-6.094-6.29,17.4,17.4,0,0,0-5.122-2.8,8.091,8.091,0,0,0-5.726.2,5.331,5.331,0,0,0-3.17,4.565c-.025,2.262,1.714,4.245,3.764,5.2a17.8,17.8,0,0,0,6.626,1.215l10.31.557a92.892,92.892,0,0,0,4.595,14.24,22.461,22.461,0,0,0-7.788-4.911,17.368,17.368,0,0,0-5.654-1.438,8.084,8.084,0,0,0-5.5,1.617,5.337,5.337,0,0,0-1.938,5.211c.536,2.2,2.713,3.687,4.934,4.1a17.788,17.788,0,0,0,6.719-.469l10.118-2.022c.064.143.124.289.188.432a95.823,95.823,0,0,0,7.438,13.527,21.222,21.222,0,0,0-9.5-3.879,17.353,17.353,0,0,0-5.826-.262,8.088,8.088,0,0,0-5.055,2.7,5.341,5.341,0,0,0-.844,5.5c.97,2.044,3.4,3.061,5.661,3.019a17.779,17.779,0,0,0,6.483-1.822l9.8-4.161c.04.059.082.119.122.177l-.038.093.072-.043a94.186,94.186,0,0,0,9.436,11.685,22.992,22.992,0,0,0-9.267-.321,17.713,17.713,0,0,0-5.718,1.62,8.253,8.253,0,0,0-4.023,4.232,5.431,5.431,0,0,0,.945,5.582c1.592,1.663,4.27,1.864,6.441,1.1a18.141,18.141,0,0,0,5.686-3.846l7.364-6.484.255-.154a89.722,89.722,0,0,0,12.725,10.567c.482.329,1.088-.36.6-.693a89.588,89.588,0,0,1-12.516-10.363l8.249-4.986a17.8,17.8,0,0,0,5.275-4.188C337.205,158.624,337.807,156.056,336.719,154.072Z" transform="translate(-124.305 -21.764)" fill="#b4d2fa"/>
    <path id="Path_113" data-name="Path 113" d="M1119.668,457.137a86.453,86.453,0,0,0,13.123-20.862c.055-.134.113-.236.167-.37,1.062-2.354,2.009-4.715,2.845-7.052a10.743,10.743,0,0,1-9.416-3.824c4.5,1.489,8.358.278,11.629-3.41a1.439,1.439,0,0,0,.3-.558,130.462,130.462,0,0,0,3.555-16.613,3.025,3.025,0,0,1,.051-.41,114.587,114.587,0,0,0,1.212-15.969c0-.18,0-.276,0-.276s-.1.007-.274.036a124.919,124.919,0,0,0-28.7,8.179c-.11.057-.237.1-.346.155a117.267,117.267,0,0,0-12.345,6.062,8.614,8.614,0,0,0-3.406,9.142c-1.589-1.7-2.475-3.589-1.883-5.924a86.946,86.946,0,0,0-18.2,15.726c-.15.174-.315.365-.447.553l-.315.365a80.836,80.836,0,0,0-7.433,10.511c-.073.119-.13.221-.188.322-14.961,25.239-15.116,54.231-15.084,57.317,0,.179,0,.276,0,.276s.1-.007.274-.036a120.623,120.623,0,0,0,22.585-5.827c.127-.042.221-.081.348-.123a118.223,118.223,0,0,0,11.635-4.888l.613-.289a103.062,103.062,0,0,0,16.046-9.65c-1.726-1.58-3.109-2.924-3.109-2.924l7.9-.875A81.767,81.767,0,0,0,1119.668,457.137Zm12.515-64.165a1.025,1.025,0,1,1-.857,1.169A1.044,1.044,0,0,1,1132.183,392.971Zm-3.1,1.626a1.6,1.6,0,0,1,.168,2.264,1.615,1.615,0,0,1-2.279.184,1.634,1.634,0,0,1-.169-2.3A1.614,1.614,0,0,1,1129.085,394.6Zm-30.861,21a1.112,1.112,0,1,1-1.567.132A1.106,1.106,0,0,1,1098.225,415.6Zm-5.338.573a1.937,1.937,0,1,1-2.715.2A1.942,1.942,0,0,1,1092.887,416.169Zm40.179,14.38a.519.519,0,0,1,.055.744.528.528,0,1,1-.8-.689A.519.519,0,0,1,1133.067,430.55Zm1.367-11.9a1.238,1.238,0,1,1-1.746.128A1.232,1.232,0,0,1,1134.434,418.649Zm-4.119,2.384a.533.533,0,0,1,.055.743.539.539,0,1,1-.815-.7A.538.538,0,0,1,1130.316,421.033Z" transform="translate(-475.451 -156.757)" fill="#326ab3"/>
    <path id="Path_114" data-name="Path 114" d="M1117.8,436.544l5.189,6.9-.294.2-5.351-7.1-16.394.3-12.519,14.511,18.552-.133.009.341-18.875.156-21.7,25.151,23.442,2.481-.613.289-14.874-1.569,3.239,6.458c-.127.042-.222.081-.348.123l-3.333-6.63-7.8-.823-11.59,13.434-.278-.24,16.846-19.527-1.275-11.12.371-.044,1.219,10.8,11.65-13.5-2.46-14.414c-2.571-2.249-7.955-6.923-11.131-9.664.058-.1.115-.2.188-.322,3.367,2.9,9.115,7.894,10.835,9.408l-3.4-19.919.315-.365,5.971,34.911,23.24-26.938-3.595-10.4.333-.106,3.531,10.191,9.853-11.421-3.054-21.8c.109-.057.237-.1.346-.155l1.514,10.843c2.455-3.3,5.944-8.012,6.1-8.332l.151.07.015-.018.07-.152.106.122c.025.112.049.224-6.371,8.824l1.437,10.232,25.68-29.768c.177-.029.274-.036.274-.036s.007.1,0,.276l-20.155,23.363,18.943-7.394a3,3,0,0,0-.051.41l-19.4,7.574-21.1,24.456,31.586-.574c-.055.134-.113.236-.167.37Z" transform="translate(-475.341 -156.757)" fill="#fff"/>
    <path id="Path_115" data-name="Path 115" d="M295.614,225.248a86.443,86.443,0,0,0-19.11-15.563c-.126-.071-.221-.141-.347-.211-2.207-1.34-4.436-2.568-6.654-3.681a10.742,10.742,0,0,1-4.941,8.88c2.025-4.283,1.293-8.262-1.969-11.958a1.435,1.435,0,0,0-.518-.366,130.4,130.4,0,0,0-16.057-5.549,3.143,3.143,0,0,1-.4-.1,114.615,114.615,0,0,0-15.7-3.146c-.178-.024-.275-.029-.275-.029s0,.1,0,.276a124.959,124.959,0,0,0,4.626,29.484c.043.116.069.247.112.363a117.273,117.273,0,0,0,4.515,12.991,8.614,8.614,0,0,0,8.66,4.492c-1.885,1.37-3.863,2.02-6.109,1.149a86.957,86.957,0,0,0,13.395,19.977c.154.17.323.356.495.511l.323.356a80.913,80.913,0,0,0,9.529,8.657c.109.087.2.156.3.226,23.232,17.921,51.989,21.6,55.056,21.945.177.025.275.029.275.029s0-.1,0-.276a120.661,120.661,0,0,0-3.036-23.126c-.026-.131-.054-.23-.08-.361a118.177,118.177,0,0,0-3.436-12.143l-.212-.644a103.1,103.1,0,0,0-7.626-17.1c-1.778,1.521-3.281,2.73-3.281,2.73l.093-7.948A81.827,81.827,0,0,0,295.614,225.248Zm-62.166-20.228a1.025,1.025,0,1,1,1.056.992A1.041,1.041,0,0,1,233.448,205.019Zm1.237,3.273a1.594,1.594,0,0,1,2.267.109,1.614,1.614,0,0,1-.094,2.284,1.634,1.634,0,0,1-2.3-.111A1.614,1.614,0,0,1,234.685,208.292Zm17.088,33.187a1.112,1.112,0,1,1-.059,1.572A1.106,1.106,0,0,1,251.773,241.479Zm-.081,5.368a1.937,1.937,0,1,1-.132,2.72A1.942,1.942,0,0,1,251.692,246.847Zm19.162-38.134a.519.519,0,0,1,.745.036.528.528,0,1,1-.781.709A.519.519,0,0,1,270.854,208.713Zm-11.646-2.8a1.238,1.238,0,1,1-.085,1.748A1.233,1.233,0,0,1,259.208,205.91Zm1.865,4.374a.533.533,0,0,1,.745.036.539.539,0,1,1-.8.724A.538.538,0,0,1,261.074,210.284Z" transform="translate(-103.538 -69.166)" fill="#326ab3"/>
    <path id="Path_116" data-name="Path 116" d="M274.959,224.49l7.479-4.312.163.316-7.7,4.447-1.7,16.308,12.88,14.19,2.125-18.43.339.032L286.408,255.8l22.324,24.6,5.314-22.966q.107.321.212.644l-3.367,14.573,6.8-2.43c.026.131.054.23.08.361l-6.985,2.5-1.765,7.639,11.925,13.138-.272.247L303.346,275l-11.193-.088,0-.373,10.868.1-11.986-13.206-14.606.688c-2.545,2.279-7.839,7.054-10.946,9.873-.094-.07-.188-.139-.3-.226,3.293-2.989,8.944-8.086,10.657-9.61l-20.185.954-.323-.356,35.378-1.679L266.8,234.742l-10.757,2.3-.065-.344,10.545-2.265-10.138-11.169-22.008.379c-.043-.115-.069-.247-.112-.363l10.947-.183c-2.978-2.838-7.229-6.874-7.529-7.067l.088-.142-.015-.017-.142-.088.135-.091c.114-.011.228-.022,7.983,7.4l10.33-.182L229.641,193.8c-.008-.179,0-.276,0-.276s.1,0,.275.029L250.65,216.4l-5.034-19.7a2.993,2.993,0,0,0,.4.1l5.157,20.178,21.708,23.917,3.273-31.421c.126.071.221.141.347.211Z" transform="translate(-103.538 -69.165)" fill="#fff"/>
    <path id="Path_117" data-name="Path 117" d="M1119.237,578.622a86.448,86.448,0,0,0,21.658-11.762c.114-.09.214-.15.327-.24,2.078-1.532,4.061-3.127,5.934-4.755a10.741,10.741,0,0,1-6.336-7.945c3.193,3.5,7.151,4.335,11.809,2.723a1.434,1.434,0,0,0,.535-.34,130.429,130.429,0,0,0,11.234-12.744,3.025,3.025,0,0,1,.245-.333,114.661,114.661,0,0,0,8.878-13.329c.09-.155.131-.243.131-.243s-.088-.041-.256-.1a124.942,124.942,0,0,0-29.03-6.926c-.124,0-.255-.03-.378-.034a117.3,117.3,0,0,0-13.732-.761,8.613,8.613,0,0,0-7.446,6.3c-.551-2.264-.4-4.341,1.259-6.087a86.975,86.975,0,0,0-23.568,4.8c-.216.078-.453.164-.661.263l-.453.164a80.836,80.836,0,0,0-11.628,5.524c-.121.068-.221.129-.322.189-25.405,14.678-39.739,39.879-41.221,42.586-.09.154-.131.243-.131.243s.088.041.256.1a120.606,120.606,0,0,0,22.545,5.981c.131.026.233.038.364.064a118.275,118.275,0,0,0,12.538,1.436l.676.048a103.122,103.122,0,0,0,18.716-.555c-.731-2.222-1.279-4.072-1.279-4.072l7.317,3.106A81.539,81.539,0,0,0,1119.237,578.622Zm42.338-49.815a1.025,1.025,0,1,1-1.319.6A1.042,1.042,0,0,1,1161.574,528.807Zm-3.5-.1a1.6,1.6,0,0,1-.963,2.055,1.614,1.614,0,0,1-2.077-.955,1.634,1.634,0,0,1,.977-2.084A1.617,1.617,0,0,1,1158.076,528.708Zm-37.192,3.194a1.112,1.112,0,1,1-1.43-.653A1.105,1.105,0,0,1,1120.884,531.9Zm-4.931-2.115a1.937,1.937,0,1,1-2.466-1.155A1.942,1.942,0,0,1,1115.953,529.787ZM1143.942,562a.518.518,0,0,1-.316.675.528.528,0,1,1-.359-.992A.52.52,0,0,1,1143.942,562Zm7.018-9.707a1.238,1.238,0,1,1-1.585-.743A1.233,1.233,0,0,1,1150.96,552.3Zm-4.755.063a.533.533,0,0,1-.316.675.539.539,0,1,1-.366-1.013A.536.536,0,0,1,1146.2,552.36Z" transform="translate(-471.653 -217.19)" fill="#b4d2fa"/>
    <path id="Path_118" data-name="Path 118" d="M1127.735,560.431l1.146,8.556-.355.031-1.188-8.81-14.44-7.768-18.021,6.521,16.239,8.969-.159.3-16.533-9.108-31.235,11.3,19.223,13.643-.676-.048-12.2-8.653-.338,7.217c-.131-.026-.233-.038-.364-.064l.34-7.412-6.4-4.536-16.684,6.037-.125-.345,24.25-8.775,4.335-10.32.344.143-4.226,10.013,16.77-6.068,4.914-13.772c-1.141-3.219-3.545-9.931-4.973-13.876.1-.06.2-.121.322-.189,1.513,4.182,4.081,11.346,4.839,13.51l6.789-19.034.453-.164L1087.9,561.1l33.454-12.105,1.958-10.825.343.071-1.913,10.615,14.184-5.133,8.013-20.5c.123,0,.255.03.378.034l-3.99,10.2c3.757-1.676,9.106-4.075,9.4-4.278l.1.135.022-.008.135-.1.033.159c-.034.11-.066.219-9.876,4.573l-3.758,9.625,36.969-13.377c.168.061.256.1.256.1s-.042.088-.131.243l-29.014,10.5,20.136,2.83a3.1,3.1,0,0,0-.245.333l-20.624-2.9-30.373,10.99,27.82,14.969c-.114.09-.214.151-.327.24Z" transform="translate(-471.602 -217.816)" fill="#fff"/>
    <path id="Path_119" data-name="Path 119" d="M772.538,771.909H223.623a3.788,3.788,0,0,0-3.788,3.788v13.7a8.579,8.579,0,0,0,8.58,8.58H768.538a8.579,8.579,0,0,0,8.58-8.58V776.489A4.579,4.579,0,0,0,772.538,771.909Z" transform="translate(-99.118 -329.945)" fill="#868ab5"/>
    <path id="Path_120" data-name="Path 120" d="M768.881,709.354H228.074c-4.452,0-9.62-3.6-7.9-5.55L296.41,617.12a4.552,4.552,0,0,1,3.493-1.293H697.016a4.555,4.555,0,0,1,3.494,1.293l76.27,86.684C778.5,705.759,773.334,709.354,768.881,709.354Z" transform="translate(-99.118 -259.572)" fill="#c8cbe3"/>
    <path id="Path_121" data-name="Path 121" d="M393.677,643.322H374.3c-2.015,0-4.154.741-4.778,1.66l-5,7.36c-.662.977.5,1.774,2.594,1.774h20.15c2.1,0,4.258-.8,4.825-1.774l4.268-7.36C396.9,644.063,395.694,643.322,393.677,643.322ZM364.2,692.99H341.26c-2.388,0-5.029,1.039-5.906,2.331l-7.06,10.4c-.943,1.387.317,2.521,2.818,2.521h24.041c2.5,0,5.188-1.134,5.993-2.521l6.03-10.4C367.925,694.029,366.592,692.99,364.2,692.99Zm38.286,0H379.546c-2.388,0-4.905,1.039-5.626,2.331l-5.812,10.4c-.776,1.387.619,2.521,3.121,2.521h24.04c2.5,0,5.052-1.134,5.69-2.521l4.783-10.4C406.336,694.029,404.879,692.99,402.49,692.99Zm216.329,0H595.875c-2.388,0-4.2,1.039-4.047,2.331l1.237,10.4c.165,1.387,2.328,2.521,4.83,2.521h24.04c2.5,0,4.284-1.134,3.981-2.521l-2.265-10.4C623.369,694.029,621.206,692.99,618.819,692.99Zm39.333,0H635.208c-2.388,0-4.072,1.039-3.759,2.331l2.519,10.4c.336,1.387,2.639,2.521,5.141,2.521h24.04c2.5,0,4.145-1.134,3.67-2.521l-3.548-10.4C662.831,694.029,660.54,692.99,658.151,692.99Zm39.335,0H674.542c-2.388,0-3.944,1.039-3.471,2.331l3.8,10.4c.507,1.387,2.95,2.521,5.453,2.521h24.04c2.5,0,4-1.134,3.359-2.521l-4.829-10.4C702.292,694.029,699.87,692.99,697.487,692.99Zm64.116,0H716.968c-4.646,0-7.907,1.039-7.28,2.331l5.05,10.4c.673,1.387,5.169,2.521,10.037,2.521h46.767c4.869,0,8.045-1.134,7.1-2.521l-7.051-10.4C770.718,694.029,766.248,692.99,761.6,692.99ZM429.009,643.322H409.636c-2.016,0-4.056.741-4.56,1.66l-4.031,7.36c-.535.977.728,1.774,2.826,1.774h20.148c2.1,0,4.155-.8,4.593-1.774l3.3-7.36C432.327,644.063,431.026,643.322,429.009,643.322Zm3.335,13.525h-20.56c-2.14,0-4.3.834-4.823,1.87l-4.215,8.308c-.561,1.1.791,2.006,3.022,2.006H427.2c2.231,0,4.406-.9,4.858-2.006l3.4-8.308C435.878,657.681,434.485,656.847,432.345,656.847Zm37.87,0H449.656c-2.141,0-4.189.834-4.578,1.87l-3.119,8.308c-.414,1.1,1.055,2.006,3.286,2.006h21.432c2.231,0,4.289-.9,4.593-2.006l2.3-8.308C473.859,657.681,472.356,656.847,470.215,656.847Zm37.872,0h-20.56c-2.139,0-4.077.834-4.329,1.87l-2.024,8.308c-.269,1.1,1.321,2.006,3.551,2.006h21.433c2.231,0,4.169-.9,4.329-2.006l1.2-8.308C511.84,657.681,510.226,656.847,508.086,656.847Zm37.87,0H525.4c-2.139,0-3.967.834-4.082,1.87l-.929,8.308c-.123,1.1,1.584,2.006,3.815,2.006h21.433c2.231,0,4.051-.9,4.065-2.006l.109-8.308C549.82,657.681,548.1,656.847,545.957,656.847Zm37.87,0H563.268c-2.14,0-3.858.834-3.837,1.87l.167,8.308c.023,1.1,1.849,2.006,4.079,2.006h21.433c2.23,0,3.931-.9,3.8-2.006l-.987-8.308C587.8,657.681,585.968,656.847,583.827,656.847Zm37.872,0H601.138c-2.141,0-3.748.834-3.591,1.87l1.264,8.308c.169,1.1,2.114,2.006,4.344,2.006h21.433c2.23,0,3.812-.9,3.536-2.006l-2.083-8.308C625.782,657.681,623.839,656.847,621.7,656.847Zm37.87,0H639.008c-2.139,0-3.638.834-3.344,1.87l2.359,8.308c.314,1.1,2.379,2.006,4.608,2.006h21.432c2.232,0,3.7-.9,3.273-2.006l-3.179-8.308C663.763,657.681,661.708,656.847,659.569,656.847Zm37.868,0H676.877c-2.14,0-3.526.834-3.1,1.87l3.455,8.308c.459,1.1,2.642,2.006,4.873,2.006H703.54c2.231,0,3.575-.9,3.009-2.006l-4.274-8.308C701.743,657.681,699.579,656.847,697.438,656.847ZM439.182,674.371h-21.6c-2.249,0-4.5.921-5.036,2.066l-4.285,9.2c-.572,1.224.867,2.224,3.217,2.224h22.575c2.35,0,4.621-1,5.071-2.224l3.376-9.2C442.916,675.293,441.432,674.371,439.182,674.371Zm36.841,0H454.418c-2.248,0-4.388.921-4.781,2.066l-3.159,9.2c-.421,1.224,1.14,2.224,3.49,2.224h22.575c2.35,0,4.5-1,4.8-2.224l2.249-9.2C479.87,675.293,478.272,674.371,476.024,674.371Zm36.84,0h-21.6c-2.249,0-4.275.921-4.528,2.066l-2.033,9.2c-.27,1.224,1.413,2.224,3.764,2.224h22.575c2.349,0,4.376-1,4.525-2.224l1.121-9.2C516.824,675.293,515.113,674.371,512.864,674.371Zm36.841,0H528.1c-2.25,0-4.163.921-4.275,2.066l-.9,9.2c-.121,1.224,1.686,2.224,4.036,2.224H549.53c2.349,0,4.254-1,4.253-2.224l-.005-9.2C553.776,675.293,551.954,674.371,549.705,674.371Zm36.84,0h-21.6c-2.249,0-4.05.921-4.022,2.066l.224,9.2c.029,1.224,1.958,2.224,4.308,2.224h22.574c2.35,0,4.132-1,3.98-2.224l-1.132-9.2C590.73,675.293,588.794,674.371,586.545,674.371Zm36.841,0H601.78c-2.248,0-3.936.921-3.768,2.066l1.349,9.2c.18,1.224,2.232,2.224,4.581,2.224h22.575c2.349,0,4.008-1,3.708-2.224l-2.26-9.2C627.684,675.293,625.635,674.371,623.386,674.371Zm36.84,0h-21.6c-2.249,0-3.823.921-3.515,2.066l2.478,9.2c.329,1.224,2.5,2.224,4.853,2.224h22.575c2.35,0,3.886-1,3.435-2.224l-3.388-9.2C664.638,675.293,662.476,674.371,660.227,674.371Zm36.843,0H675.464c-2.248,0-3.71.921-3.261,2.066l3.6,9.2c.48,1.224,2.777,2.224,5.127,2.224h22.575c2.349,0,3.763-1,3.161-2.224l-4.514-9.2C701.594,675.293,699.315,674.371,697.07,674.371Zm-232.73-31.049H444.967c-2.017,0-3.96.741-4.342,1.66l-3.066,7.36c-.407.977.961,1.774,3.057,1.774h20.15c2.1,0,4.05-.8,4.361-1.774l2.338-7.36C467.756,644.063,466.356,643.322,464.339,643.322Zm35.331,0H480.3c-2.015,0-3.862.741-4.125,1.66l-2.1,7.36c-.278.977,1.194,1.774,3.291,1.774h20.15c2.1,0,3.945-.8,4.128-1.774l1.372-7.36C503.183,644.063,501.688,643.322,499.671,643.322Zm35.332,0H515.629c-2.016,0-3.765.741-3.907,1.66l-1.137,7.36c-.15.977,1.426,1.774,3.524,1.774h20.149c2.1,0,3.841-.8,3.9-1.774l.408-7.36C538.612,644.063,537.019,643.322,535,643.322Zm35.33,0H550.961c-2.018,0-3.669.741-3.69,1.66l-.172,7.36c-.023.977,1.659,1.774,3.756,1.774H571c2.1,0,3.737-.8,3.662-1.774l-.557-7.36C574.041,644.063,572.35,643.322,570.333,643.322Zm35.332,0H586.291c-2.017,0-3.57.741-3.472,1.66l.794,7.36c.105.977,1.891,1.774,3.988,1.774h20.149c2.1,0,3.632-.8,3.43-1.774l-1.522-7.36C609.469,644.063,607.681,643.322,605.664,643.322Zm35.331,0H621.622c-2.016,0-3.474.741-3.254,1.66l1.758,7.36c.233.977,2.125,1.774,4.221,1.774H644.5c2.1,0,3.528-.8,3.2-1.774l-2.487-7.36C644.9,644.063,643.012,643.322,641,643.322Zm35.332,0H656.954c-2.016,0-3.377.741-3.037,1.66l2.724,7.36c.362.977,2.356,1.774,4.454,1.774h20.148c2.1,0,3.423-.8,2.966-1.774l-3.452-7.36C680.325,644.063,678.343,643.322,676.327,643.322Zm53.1,0H692.8c-3.813,0-6.54.741-6.088,1.66l3.614,7.36c.48.977,4.086,1.774,8.05,1.774h38.1c3.966,0,6.639-.8,5.978-1.774l-4.992-7.36C736.832,644.063,733.24,643.322,729.43,643.322Zm21.311,31.049h-35.27c-3.671,0-6.17.921-5.58,2.066l4.75,9.2c.631,1.224,4.258,2.224,8.093,2.224h36.852c3.836,0,6.267-1,5.436-2.224l-6.235-9.2C758.011,675.293,754.409,674.371,750.741,674.371ZM742.3,656.847H714.519c-2.892,0-4.783.834-4.222,1.87l4.505,8.308c.6,1.1,3.529,2.006,6.543,2.006H750.3c3.014,0,4.848-.9,4.1-2.006l-5.611-8.308C748.094,657.681,745.184,656.847,742.3,656.847Zm-343.254.06h-36.33a6.308,6.308,0,0,0-4.769,2.163l-5.126,7.581c-.86,1.274-.022,2.315,1.881,2.315h37.855c1.9,0,3.992-1.042,4.663-2.315l3.99-7.581C401.84,657.871,400.868,656.907,399.042,656.907Zm4.207,17.042H354.315c-2.46,0-5.174,1.063-6.071,2.382l-5.677,8.363c-.955,1.408.346,2.559,2.913,2.559h51.1c2.567,0,5.209-1.15,5.893-2.559l4.066-8.363C407.185,675.012,405.709,673.949,403.249,673.949Zm172.124,19.04H426.132c-3.043,0-6.061,1.326-6.75,2.976l-3.777,9.07c-.735,1.763,1.248,3.206,4.436,3.206H576.413c3.189,0,5.65-1.443,5.5-3.206l-.775-9.07C580.994,694.316,578.415,692.99,575.372,692.99Z" transform="translate(-147.878 -271.969)" fill="#aaaecf"/>
    <g id="Group_23" data-name="Group 23" transform="translate(177.243 367.034)">
      <path id="Path_122" data-name="Path 122" d="M388.586,635.457H369.1c-2.029,0-4.175.749-4.8,1.68l-5,7.447c-.663.988.506,1.793,2.615,1.793h20.267c2.109,0,4.282-.806,4.847-1.793l4.265-7.447C391.829,636.206,390.615,635.457,388.586,635.457ZM359.138,685.7H336.067c-2.4,0-5.053,1.051-5.929,2.357l-7.054,10.514c-.94,1.4.331,2.549,2.846,2.549H350.1c2.517,0,5.211-1.147,6.015-2.549l6.022-10.514C362.884,686.747,361.539,685.7,359.138,685.7Zm38.5,0h-23.07c-2.4,0-4.928,1.051-5.649,2.357l-5.8,10.514c-.774,1.4.633,2.549,3.149,2.549h24.17c2.517,0,5.076-1.147,5.711-2.549l4.771-10.514C401.507,686.747,400.037,685.7,397.636,685.7Zm217.528,0H592.092c-2.4,0-4.221,1.051-4.064,2.357l1.266,10.514c.17,1.4,2.346,2.549,4.862,2.549h24.171c2.516,0,4.3-1.147,4-2.549l-2.3-10.514C619.741,686.747,617.564,685.7,615.164,685.7Zm39.549,0h-23.07c-2.4,0-4.093,1.051-3.776,2.357l2.552,10.514c.34,1.4,2.659,2.549,5.174,2.549h24.17c2.517,0,4.165-1.147,3.686-2.549l-3.583-10.514C659.419,686.747,657.115,685.7,654.713,685.7Zm39.551,0H671.193c-2.4,0-3.964,1.051-3.488,2.357l3.836,10.514c.512,1.4,2.97,2.549,5.486,2.549H701.2c2.515,0,4.025-1.147,3.375-2.549L699.7,688.054C699.1,686.747,696.666,685.7,694.264,685.7Zm64.469,0H713.851c-4.671,0-7.95,1.051-7.317,2.357l5.089,10.514c.679,1.4,5.2,2.549,10.1,2.549h47.02c4.894,0,8.088-1.147,7.14-2.549l-7.1-10.514C767.9,686.747,763.406,685.7,758.733,685.7Zm-334.606-50.24H404.639c-2.028,0-4.078.749-4.581,1.68l-4.027,7.447c-.535.988.739,1.793,2.848,1.793h20.268c2.109,0,4.176-.806,4.613-1.793l3.3-7.447C427.468,636.206,426.155,635.457,424.127,635.457Zm5.283,13.868H408.734c-2.153,0-4.321.843-4.848,1.892l-4.229,8.4c-.563,1.117.8,2.028,3.039,2.028h21.551c2.243,0,4.43-.911,4.883-2.028l3.408-8.4C432.963,650.169,431.562,649.325,429.41,649.325Zm38.082,0H446.817c-2.152,0-4.211.843-4.6,1.892l-3.13,8.4c-.416,1.117,1.063,2.028,3.305,2.028h21.55c2.244,0,4.312-.911,4.618-2.028l2.309-8.4C471.156,650.169,469.643,649.325,467.491,649.325Zm38.082,0H484.9c-2.152,0-4.1.843-4.354,1.892l-2.031,8.4c-.271,1.117,1.328,2.028,3.571,2.028h21.55c2.242,0,4.192-.911,4.352-2.028l1.21-8.4C509.348,650.169,507.725,649.325,505.573,649.325Zm38.082,0H522.981c-2.152,0-3.989.843-4.106,1.892l-.931,8.4c-.125,1.117,1.593,2.028,3.835,2.028h21.55c2.243,0,4.073-.911,4.088-2.028l.11-8.4C547.541,650.169,545.807,649.325,543.655,649.325Zm38.083,0H561.062c-2.153,0-3.88.843-3.859,1.892l.167,8.4c.023,1.117,1.859,2.028,4.1,2.028h21.55c2.244,0,3.954-.911,3.822-2.028l-.989-8.4C585.733,650.169,583.89,649.325,581.738,649.325Zm38.081,0H599.145c-2.151,0-3.769.843-3.611,1.892l1.266,8.4c.168,1.117,2.124,2.028,4.367,2.028h21.55c2.243,0,3.835-.911,3.557-2.028l-2.089-8.4C623.926,650.169,621.971,649.325,619.819,649.325Zm38.082,0H637.225c-2.151,0-3.657.843-3.362,1.892l2.365,8.4c.315,1.117,2.389,2.028,4.633,2.028h21.549c2.242,0,3.715-.911,3.291-2.028l-3.187-8.4C662.117,650.169,660.053,649.325,657.9,649.325Zm38.083,0H675.311c-2.153,0-3.549.843-3.117,1.892l3.465,8.4c.46,1.117,2.654,2.028,4.9,2.028h21.55c2.243,0,3.6-.911,3.027-2.028l-4.286-8.4C700.312,650.169,698.137,649.325,695.985,649.325ZM434.468,666.868H412.739c-2.262,0-4.523.931-5.055,2.09l-4.278,9.3c-.569,1.238.881,2.249,3.243,2.249h22.7c2.362,0,4.644-1.01,5.092-2.249l3.364-9.3C438.226,667.8,436.729,666.868,434.468,666.868Zm37.051,0H449.79c-2.261,0-4.409.931-4.8,2.09l-3.146,9.3c-.419,1.238,1.155,2.249,3.517,2.249h22.7c2.362,0,4.519-1.01,4.817-2.249l2.234-9.3C475.389,667.8,473.78,666.868,471.519,666.868Zm37.05,0H486.84c-2.262,0-4.3.931-4.547,2.09l-2.015,9.3c-.268,1.238,1.427,2.249,3.79,2.249h22.7c2.362,0,4.4-1.01,4.545-2.249l1.1-9.3C512.554,667.8,510.829,666.868,508.569,666.868Zm37.05,0H523.891c-2.261,0-4.183.931-4.294,2.09l-.885,9.3c-.117,1.238,1.7,2.249,4.065,2.249h22.7c2.363,0,4.275-1.01,4.271-2.249l-.029-9.3C549.717,667.8,547.881,666.868,545.619,666.868Zm37.051,0H560.941c-2.261,0-4.069.931-4.039,2.09l.247,9.3c.032,1.238,1.975,2.249,4.337,2.249h22.7c2.363,0,4.151-1.01,4-2.249l-1.159-9.3C586.881,667.8,584.932,666.868,582.67,666.868Zm37.051,0H597.992c-2.261,0-3.957.931-3.785,2.09l1.378,9.3c.183,1.238,2.248,2.249,4.61,2.249h22.7c2.362,0,4.029-1.01,3.724-2.249l-2.29-9.3C624.045,667.8,621.982,666.868,619.721,666.868Zm37.05,0H635.043c-2.262,0-3.844.931-3.532,2.09l2.507,9.3c.334,1.238,2.523,2.249,4.885,2.249h22.7c2.363,0,3.906-1.01,3.451-2.249l-3.422-9.3C661.208,667.8,659.032,666.868,656.771,666.868Zm37.05,0H672.092c-2.26,0-3.731.931-3.277,2.09l3.639,9.3c.484,1.238,2.8,2.249,5.157,2.249h22.7c2.362,0,3.782-1.01,3.178-2.249l-4.553-9.3C698.373,667.8,696.083,666.868,693.821,666.868ZM459.668,635.457H440.18c-2.029,0-3.981.749-4.363,1.68l-3.059,7.447c-.406.988.972,1.793,3.082,1.793h20.267c2.109,0,4.071-.806,4.38-1.793l2.328-7.447C463.107,636.206,461.7,635.457,459.668,635.457Zm35.542,0H475.722c-2.028,0-3.883.749-4.144,1.68l-2.092,7.447c-.276.988,1.206,1.793,3.316,1.793H493.07c2.109,0,3.967-.806,4.147-1.793l1.36-7.447C498.746,636.206,497.239,635.457,495.21,635.457Zm35.541,0H511.263c-2.028,0-3.785.749-3.926,1.68l-1.122,7.447c-.149.988,1.44,1.793,3.55,1.793h20.268c2.108,0,3.86-.806,3.912-1.793l.391-7.447C534.385,636.206,532.779,635.457,530.751,635.457Zm35.542,0H546.8c-2.029,0-3.69.749-3.708,1.68l-.155,7.447c-.02.988,1.674,1.793,3.783,1.793h20.268c2.109,0,3.757-.806,3.68-1.793l-.577-7.447C570.023,636.206,568.322,635.457,566.293,635.457Zm35.541,0H582.345c-2.027,0-3.591.749-3.489,1.68l.814,7.447c.109.988,1.907,1.793,4.016,1.793h20.268c2.109,0,3.651-.806,3.446-1.793l-1.546-7.447C605.662,636.206,603.862,635.457,601.834,635.457Zm35.542,0H617.886c-2.028,0-3.492.749-3.27,1.68l1.784,7.447c.236.988,2.139,1.793,4.248,1.793h20.268c2.109,0,3.547-.806,3.213-1.793l-2.514-7.447C641.3,636.206,639.4,635.457,637.375,635.457Zm35.541,0H653.429c-2.029,0-3.4.749-3.052,1.68l2.752,7.447c.365.988,2.373,1.793,4.482,1.793h20.268c2.109,0,3.442-.806,2.98-1.793l-3.484-7.447C676.939,636.206,674.945,635.457,672.916,635.457Zm53.418,0H689.487c-3.835,0-6.576.749-6.121,1.68l3.646,7.447c.483.988,4.111,1.793,8.1,1.793h38.32c3.988,0,6.677-.806,6.01-1.793l-5.028-7.447C733.786,636.206,730.168,635.457,726.335,635.457ZM747.8,666.868H712.33c-3.692,0-6.205.931-5.609,2.09l4.787,9.3c.638,1.238,4.285,2.249,8.141,2.249h37.058c3.857,0,6.3-1.01,5.465-2.249l-6.278-9.3C755.114,667.8,751.49,666.868,747.8,666.868Zm-10.087-17.543H712.676c-2.606,0-4.295.843-3.77,1.892l4.209,8.4c.56,1.117,3.218,2.028,5.933,2.028h26.1c2.716,0,4.353-.911,3.661-2.028l-5.2-8.4C742.951,650.169,740.316,649.325,737.713,649.325Zm-341.791.061H359.388a6.323,6.323,0,0,0-4.793,2.189l-5.142,7.664c-.864,1.288-.019,2.34,1.893,2.34H389.41c1.913,0,4.014-1.052,4.686-2.34l4.006-7.664C398.736,650.362,397.758,649.387,395.921,649.387Zm2.407,17.055H349.115c-2.473,0-5.2,1.074-6.1,2.41l-5.674,8.458c-.954,1.424.359,2.587,2.941,2.587h51.389c2.583,0,5.234-1.163,5.916-2.587l4.058-8.458C402.291,667.516,400.8,666.442,398.329,666.442ZM571.477,685.7H421.409c-3.06,0-6.091,1.34-6.776,3.009l-3.768,9.17c-.732,1.781,1.268,3.241,4.473,3.241H572.557c3.206,0,5.677-1.459,5.522-3.241l-.8-9.17C577.133,687.037,574.535,685.7,571.477,685.7Z" transform="translate(-322.774 -635.457)" fill="#fff"/>
    </g>
    <g id="Group_33" data-name="Group 33" transform="translate(195.869 80.042)">
      <path id="Path_123" data-name="Path 123" d="M761.488,158.315v228.69a6.213,6.213,0,0,1-6.15,6.279H384.452a6.22,6.22,0,0,1-6.157-6.279V158.315a6.22,6.22,0,0,1,6.157-6.279H755.338A6.214,6.214,0,0,1,761.488,158.315Z" transform="translate(-366.432 -130.503)" fill="#b5bdff"/>
      <path id="Path_124" data-name="Path 124" d="M714.851,127.325a7.264,7.264,0,1,1,7.263,7.264A7.264,7.264,0,0,1,714.851,127.325Z" transform="translate(-518.177 -116.086)" fill="#999"/>
      <path id="Path_125" data-name="Path 125" d="M759.99,614.359H362a4.5,4.5,0,0,1-4.5-4.5h0a4.5,4.5,0,0,1,4.5-4.5H759.993a4.5,4.5,0,0,1,4.494,4.5h0A4.493,4.493,0,0,1,759.99,614.359Z" transform="translate(-357.059 -334.899)" fill="#868ab5"/>
      <path id="Path_126" data-name="Path 126" d="M756.531,112.822H362.558a5.868,5.868,0,0,0-5.866,5.867V377.422a5.868,5.868,0,0,0,5.866,5.866H756.53a5.868,5.868,0,0,0,5.866-5.866V118.689A5.87,5.87,0,0,0,756.531,112.822Zm-4.783,256.5a6.213,6.213,0,0,1-6.15,6.279H374.712a6.22,6.22,0,0,1-6.157-6.279V140.635a6.22,6.22,0,0,1,6.157-6.279H745.6a6.213,6.213,0,0,1,6.15,6.279v228.69Z" transform="translate(-356.692 -112.822)" fill="#8287ab"/>
      <path id="Path_127" data-name="Path 127" d="M745.05,127.158a7.468,7.468,0,1,1-7.468-7.469A7.469,7.469,0,0,1,745.05,127.158Z" transform="translate(-525.058 -115.918)" fill="#fff"/>
      <path id="Path_128" data-name="Path 128" d="M734.049,128.928a5.307,5.307,0,1,1,5.307,5.306A5.307,5.307,0,0,1,734.049,128.928Z" transform="translate(-526.833 -117.691)" fill="#8287ab"/>
      <path id="Path_129" data-name="Path 129" d="M739.109,128.471a1.264,1.264,0,1,1,1.264,1.264A1.263,1.263,0,0,1,739.109,128.471Z" transform="translate(-529.114 -119.308)" fill="#fff"/>
      <g id="Group_24" data-name="Group 24" transform="translate(8.281 21.53)">
        <path id="Path_130" data-name="Path 130" d="M761.809,158.355V388.609a6.291,6.291,0,0,1-6.26,6.318H378.039a6.3,6.3,0,0,1-6.267-6.318V158.355a6.3,6.3,0,0,1,6.267-6.325H755.55A6.3,6.3,0,0,1,761.809,158.355Z" transform="translate(-371.772 -152.03)" fill="#fff"/>
        <path id="Path_131" data-name="Path 131" d="M761.81,158.355v18.821H371.773V158.355a6.3,6.3,0,0,1,6.267-6.325H755.551A6.3,6.3,0,0,1,761.81,158.355Z" transform="translate(-371.772 -152.03)" fill="#d3dcf0"/>
        <path id="Path_132" data-name="Path 132" d="M701.894,161.919H408.512c-6.438,0-11.656,3.112-11.656,6.95h0c0,3.838,5.219,6.95,11.656,6.95H701.894c6.437,0,11.656-3.111,11.656-6.95h0C713.55,165.031,708.331,161.919,701.894,161.919Zm43.873,13.9h-19.09a6.988,6.988,0,0,1-7.027-6.95h0a6.989,6.989,0,0,1,7.027-6.95h19.09a6.988,6.988,0,0,1,7.026,6.95h0A6.993,6.993,0,0,1,745.767,175.82Z" transform="translate(-383.082 -156.489)" fill="#fff"/>
        <path id="Path_133" data-name="Path 133" d="M1014.366,174.105l-3.1-2.147a.779.779,0,0,0-.113-.063,3.9,3.9,0,0,0,.458-1.835,4,4,0,1,0-1.378,2.985.756.756,0,0,0,.155.149l3.1,2.147a.768.768,0,0,0,1.064-.185A.754.754,0,0,0,1014.366,174.105Zm-6.765-1.21a2.834,2.834,0,1,1,2.865-2.833A2.852,2.852,0,0,1,1007.6,172.895Z" transform="translate(-656.645 -158.371)" fill="#d3dcf0"/>
        <path id="Path_134" data-name="Path 134" d="M1060.49,164.926a1.591,1.591,0,1,1,1.591,1.574A1.582,1.582,0,0,1,1060.49,164.926Zm0,3.934a1.591,1.591,0,1,1,1.591,1.574A1.582,1.582,0,0,1,1060.49,168.86Zm0,3.934a1.591,1.591,0,1,1,1.591,1.574A1.582,1.582,0,0,1,1060.49,172.794Z" transform="translate(-682.298 -157.135)" fill="#fff"/>
      </g>
      <g id="Group_25" data-name="Group 25" transform="translate(81.233 62.371)">
        <path id="Path_135" data-name="Path 135" d="M516.456,240.5h-5.805l-.807,2.732h-5.221l6.219-16.548h5.577l6.218,16.548h-5.354Zm-1.06-3.579-1.826-5.949-1.808,5.949Zm18.847-10.238h5.1v9.859a8.305,8.305,0,0,1-.457,2.769,5.979,5.979,0,0,1-1.434,2.279,5.718,5.718,0,0,1-2.049,1.371,10.311,10.311,0,0,1-3.578.553,22.564,22.564,0,0,1-2.636-.169,6.9,6.9,0,0,1-2.388-.672,5.971,5.971,0,0,1-1.755-1.427,5.248,5.248,0,0,1-1.089-1.907,9.87,9.87,0,0,1-.474-2.8v-9.859h5.1v10.094a2.88,2.88,0,0,0,.751,2.115,3.233,3.233,0,0,0,4.154.011,2.875,2.875,0,0,0,.751-2.126Zm7.326,0h15.543v4.086H551.9v12.462h-5.113V230.773h-5.215v-4.086Zm17.88,0h5.114v5.791h5.587v-5.791h5.136v16.548H570.15v-6.694h-5.587v6.694h-5.114Zm19.223,0h13.7v3.533H583.8v2.63h7.958v3.375H583.8v3.262h8.827v3.748H578.672Zm16.74,0h4.775l6.231,9.155v-9.155h4.82v16.548h-4.82l-6.2-9.086v9.086h-4.809Zm18.061,0h15.544v4.086H623.8v12.462h-5.113V230.773h-5.215v-4.086Zm18.061,0h5.124v16.548h-5.124Zm19.81,9.776,4.481,1.355a8.264,8.264,0,0,1-1.422,3.149,6.17,6.17,0,0,1-2.41,1.908,9.015,9.015,0,0,1-3.663.644,10.631,10.631,0,0,1-4.408-.784,6.992,6.992,0,0,1-2.952-2.758,9.345,9.345,0,0,1-1.242-5.054,8.588,8.588,0,0,1,2.184-6.311,9.942,9.942,0,0,1,11.1-.941,7.427,7.427,0,0,1,2.658,3.883l-4.515,1a3.869,3.869,0,0,0-.5-1.106,2.94,2.94,0,0,0-1.05-.9,3.228,3.228,0,0,0-4.052,1.082,5.936,5.936,0,0,0-.7,3.258,6.191,6.191,0,0,0,.835,3.771,3.3,3.3,0,0,0,4.566.2A5.109,5.109,0,0,0,651.343,236.463Zm17.138,4.041h-5.805l-.807,2.732h-5.221l6.219-16.548h5.578l6.218,16.548h-5.354Zm-1.061-3.579-1.826-5.949-1.807,5.949Zm6.114-10.238h15.543v4.086h-5.215v12.462h-5.113V230.773h-5.215v-4.086Zm18.061,0h5.124v16.548H691.6Zm8.15,8.285a7.833,7.833,0,0,1,8.545-8.567,8.652,8.652,0,0,1,6.367,2.218,8.365,8.365,0,0,1,2.235,6.214,10.189,10.189,0,0,1-.976,4.758,6.962,6.962,0,0,1-2.822,2.889,9.315,9.315,0,0,1-4.6,1.033,10.579,10.579,0,0,1-4.634-.892,6.976,6.976,0,0,1-2.975-2.822A9.361,9.361,0,0,1,699.745,234.972Zm5.113.023a5.548,5.548,0,0,0,.931,3.6,3.526,3.526,0,0,0,5.085.023,6.125,6.125,0,0,0,.9-3.849,5.114,5.114,0,0,0-.942-3.414,3.223,3.223,0,0,0-2.557-1.078,3.106,3.106,0,0,0-2.483,1.095A5.555,5.555,0,0,0,704.859,234.995Zm14.821-8.308h4.775l6.231,9.155v-9.155h4.82v16.548h-4.82l-6.2-9.086v9.086H719.68Z" transform="translate(-504.623 -226.405)" fill="#70bdff"/>
      </g>
      <g id="Group_28" data-name="Group 28" transform="translate(41.78 83.907)">
        <circle id="Ellipse_1" data-name="Ellipse 1" cx="34.573" cy="34.573" r="34.573" transform="translate(0 59.803) rotate(-59.869)" fill="#d3dcf0"/>
        <circle id="Ellipse_2" data-name="Ellipse 2" cx="13.422" cy="13.422" r="13.422" transform="translate(33.314 24.056)" fill="#fff"/>
        <path id="Path_136" data-name="Path 136" d="M516.975,358.006a2.921,2.921,0,0,0-3.652.052,13.416,13.416,0,0,1-16.741.175,2.888,2.888,0,0,0-3.662.064,12.676,12.676,0,0,0-4.357,10.022v.393a4.075,4.075,0,0,0,4.076,4.075H517.72a4.075,4.075,0,0,0,4.075-4.075v-.393A12.541,12.541,0,0,0,516.975,358.006Z" transform="translate(-457.929 -306.999)" fill="#fff"/>
        <path id="Path_137" data-name="Path 137" d="M453.187,431.638H463a1.791,1.791,0,0,1,1.791,1.791v9.811A1.791,1.791,0,0,1,463,445.031h-9.811a1.791,1.791,0,0,1-1.791-1.791v-9.811A1.792,1.792,0,0,1,453.187,431.638Zm20.411,0h9.811a1.791,1.791,0,0,1,1.791,1.791v9.811a1.791,1.791,0,0,1-1.791,1.791H473.6a1.791,1.791,0,0,1-1.791-1.791v-9.811A1.792,1.792,0,0,1,473.6,431.638Zm20.411,0h9.811a1.791,1.791,0,0,1,1.791,1.791v9.811a1.791,1.791,0,0,1-1.791,1.791h-9.811a1.791,1.791,0,0,1-1.791-1.791v-9.811A1.792,1.792,0,0,1,494.009,431.638Zm20.411,0h9.811a1.791,1.791,0,0,1,1.791,1.791v9.811a1.791,1.791,0,0,1-1.791,1.791H514.42a1.791,1.791,0,0,1-1.791-1.791v-9.811A1.791,1.791,0,0,1,514.42,431.638Zm-61.233,25.376H463a1.791,1.791,0,0,1,1.791,1.791v9.811A1.791,1.791,0,0,1,463,470.407h-9.811a1.791,1.791,0,0,1-1.791-1.791v-9.811A1.792,1.792,0,0,1,453.187,457.014Zm19.337,0h9.811a1.791,1.791,0,0,1,1.791,1.791v9.811a1.791,1.791,0,0,1-1.791,1.791h-9.811a1.791,1.791,0,0,1-1.791-1.791v-9.811A1.791,1.791,0,0,1,472.525,457.014Z" transform="translate(-441.171 -340.475)" fill="#d3dcf0"/>
        <g id="Group_26" data-name="Group 26" transform="translate(49.973 116.539)">
          <path id="Path_138" data-name="Path 138" d="M525.572,477.85h9.811a1.791,1.791,0,0,1,1.791,1.791v9.811a1.791,1.791,0,0,1-1.791,1.791h-9.811a1.791,1.791,0,0,1-1.791-1.791v-9.811A1.791,1.791,0,0,1,525.572,477.85Z" transform="translate(-523.781 -477.85)" fill="#d3dcf0"/>
        </g>
        <g id="Group_27" data-name="Group 27" transform="translate(70.384 116.539)">
          <path id="Path_139" data-name="Path 139" d="M562.742,477.85h9.811a1.791,1.791,0,0,1,1.791,1.791v9.811a1.791,1.791,0,0,1-1.791,1.791h-9.811a1.791,1.791,0,0,1-1.791-1.791v-9.811A1.791,1.791,0,0,1,562.742,477.85Z" transform="translate(-560.951 -477.85)" fill="#d3dcf0"/>
        </g>
      </g>
      <g id="Group_29" data-name="Group 29" transform="translate(161.645 105.829)">
        <path id="Path_140" data-name="Path 140" d="M688.542,309.173H652.056a1,1,0,0,1-1-.995v-1.639a1,1,0,0,1,1-.995h36.485a1,1,0,0,1,1,.995v1.639A1,1,0,0,1,688.542,309.173Zm175.8,0H827.861a1,1,0,0,1-.995-.995v-1.639a1,1,0,0,1,.995-.995h36.486a1,1,0,0,1,1,.995v1.639A.989.989,0,0,1,864.346,309.173Zm0,16.181H775.027a1,1,0,0,1-.995-1V322.72a1,1,0,0,1,.995-1h89.322a1,1,0,0,1,1,1v1.639A.993.993,0,0,1,864.346,325.354Zm-46.133-16.181H701.094a1,1,0,0,1-.995-.995v-1.639a1,1,0,0,1,.995-.995h117.12a1,1,0,0,1,1,.995v1.639A1,1,0,0,1,818.214,309.173Zm-51.4,16.181H652.481a1,1,0,0,1-1-1V322.72a1,1,0,0,1,1-1H766.812a1,1,0,0,1,.995,1v1.639A1,1,0,0,1,766.812,325.354Z" transform="translate(-651.061 -305.544)" fill="#d3dcf0"/>
      </g>
      <g id="Group_30" data-name="Group 30" transform="translate(161.645 139.79)">
        <path id="Path_141" data-name="Path 141" d="M688.542,371.019H652.056a1,1,0,0,1-1-1v-1.639a1,1,0,0,1,1-1h36.485a1,1,0,0,1,1,1v1.639A1,1,0,0,1,688.542,371.019Zm175.8,0H827.861a1,1,0,0,1-.995-1v-1.639a1,1,0,0,1,.995-1h36.486a1,1,0,0,1,1,1v1.639A.989.989,0,0,1,864.346,371.019Zm0,16.182H775.027a1,1,0,0,1-.995-1v-1.639a1,1,0,0,1,.995-1h89.322a1,1,0,0,1,1,1v1.639A.993.993,0,0,1,864.346,387.2Zm-46.133-16.182H701.094a1,1,0,0,1-.995-1v-1.639a1,1,0,0,1,.995-1h117.12a1,1,0,0,1,1,1v1.639A1,1,0,0,1,818.214,371.019Zm-51.4,16.182H652.481a1,1,0,0,1-1-1v-1.639a1,1,0,0,1,1-1H766.812a1,1,0,0,1,.995,1v1.639A1,1,0,0,1,766.812,387.2Z" transform="translate(-651.061 -367.39)" fill="#d3dcf0"/>
      </g>
      <g id="Group_31" data-name="Group 31" transform="translate(161.645 173.751)">
        <path id="Path_142" data-name="Path 142" d="M688.542,432.865H652.056a1,1,0,0,1-1-1v-1.639a1,1,0,0,1,1-1h36.485a1,1,0,0,1,1,1v1.639A1,1,0,0,1,688.542,432.865Zm175.8,0H827.861a1,1,0,0,1-.995-1v-1.639a1,1,0,0,1,.995-1h36.486a1,1,0,0,1,1,1v1.639A.989.989,0,0,1,864.346,432.865Zm0,16.182H775.027a1,1,0,0,1-.995-1v-1.639a1,1,0,0,1,.995-1h89.322a1,1,0,0,1,1,1v1.639A.993.993,0,0,1,864.346,449.047Zm-46.133-16.182H701.094a1,1,0,0,1-.995-1v-1.639a1,1,0,0,1,.995-1h117.12a1,1,0,0,1,1,1v1.639A1,1,0,0,1,818.214,432.865Zm-51.4,16.182H652.481a1,1,0,0,1-1-1v-1.639a1,1,0,0,1,1-1H766.812a1,1,0,0,1,.995,1v1.639A1,1,0,0,1,766.812,449.047Z" transform="translate(-651.061 -429.236)" fill="#d3dcf0"/>
      </g>
      <g id="Group_32" data-name="Group 32" transform="translate(161.645 207.713)">
        <path id="Path_143" data-name="Path 143" d="M688.542,494.712H652.056a1,1,0,0,1-1-.995v-1.639a1,1,0,0,1,1-1h36.485a1,1,0,0,1,1,1v1.639A1,1,0,0,1,688.542,494.712Zm175.8,0H827.861a1,1,0,0,1-.995-.995v-1.639a1,1,0,0,1,.995-1h36.486a1,1,0,0,1,1,1v1.639A.989.989,0,0,1,864.346,494.712Zm0,16.182H775.027a1,1,0,0,1-.995-1V508.26a1,1,0,0,1,.995-1h89.322a1,1,0,0,1,1,1V509.9A.993.993,0,0,1,864.346,510.894Zm-46.133-16.182H701.094a1,1,0,0,1-.995-.995v-1.639a1,1,0,0,1,.995-1h117.12a1,1,0,0,1,1,1v1.639A1,1,0,0,1,818.214,494.712Zm-51.4,16.182H652.481a1,1,0,0,1-1-1V508.26a1,1,0,0,1,1-1H766.812a1,1,0,0,1,.995,1V509.9A1,1,0,0,1,766.812,510.894Z" transform="translate(-651.061 -491.083)" fill="#d3dcf0"/>
      </g>
    </g>
    <g id="Group_42" data-name="Group 42" transform="translate(353.687 172.03)">
      <path id="Path_144" data-name="Path 144" d="M644.091,419.407V299.422a4.7,4.7,0,0,1,4.7-4.7H766.985a4.7,4.7,0,0,1,4.7,4.7V419.407a4.7,4.7,0,0,1-4.7,4.7H648.8A4.7,4.7,0,0,1,644.091,419.407Z" transform="translate(-644.091 -286.821)" fill="#70bdff"/>
      <path id="Path_145" data-name="Path 145" d="M765.575,423.414H656.619A5.416,5.416,0,0,1,651.2,418V307.245a5.416,5.416,0,0,1,5.416-5.416H765.575a5.416,5.416,0,0,1,5.416,5.416V418A5.416,5.416,0,0,1,765.575,423.414Z" transform="translate(-647.298 -290.028)" fill="#fff"/>
      <path id="Path_146" data-name="Path 146" d="M761.249,342.6v5.086a1.832,1.832,0,0,1-1.832,1.832h0a1.832,1.832,0,0,1-1.832-1.832v-4.63a4.461,4.461,0,0,0-4.461-4.462H742.732a4.463,4.463,0,0,0-4.463,4.463v15.661H734.6V342.6a7.672,7.672,0,0,1,7.672-7.672h11.3A7.672,7.672,0,0,1,761.249,342.6Z" transform="translate(-684.901 -304.949)" fill="#636b96"/>
      <path id="Path_147" data-name="Path 147" d="M751.774,338.437H741.383a4.463,4.463,0,0,0-4.463,4.463v15.661H734.6v.159h3.665v-15.66a4.463,4.463,0,0,1,4.463-4.463h10.221A4.463,4.463,0,0,0,751.774,338.437Zm2.038-3.5a7.674,7.674,0,0,1,6.088,7.508v5.086a1.831,1.831,0,0,1-1.36,1.769,1.833,1.833,0,0,0,2.708-1.61V342.6A7.67,7.67,0,0,0,753.812,334.935Z" transform="translate(-684.901 -304.954)" fill="#4b5482"/>
      <path id="Path_148" data-name="Path 148" d="M762.739,373.047v5.339a18.7,18.7,0,0,1-6.34,13.883,22.746,22.746,0,0,1-15.31,5.75c-11.955,0-21.648-8.791-21.648-19.633v-5.339a5.279,5.279,0,0,1,.334-1.851,5.5,5.5,0,0,1,.59-1.149,6.533,6.533,0,0,1,5.447-2.777h30.557a6.533,6.533,0,0,1,5.447,2.777,5.608,5.608,0,0,1,.59,1.149A5.3,5.3,0,0,1,762.739,373.047Z" transform="translate(-678.064 -319.533)" fill="#ffbc47"/>
      <path id="Path_149" data-name="Path 149" d="M765.124,367.591a5.457,5.457,0,0,1,1.577,3.8v5.34c0,10.842-9.693,19.632-21.649,19.632a23.388,23.388,0,0,1-9.668-2.063,23.051,23.051,0,0,0,12.894,3.861c11.957,0,21.649-8.79,21.649-19.632v-5.34A5.916,5.916,0,0,0,765.124,367.591Z" transform="translate(-685.252 -319.678)" fill="#f5af36"/>
      <path id="Path_150" data-name="Path 150" d="M743.718,388.439a8.318,8.318,0,1,1,8.318,8.318A8.318,8.318,0,0,1,743.718,388.439Z" transform="translate(-689.01 -325.328)" fill="#fff"/>
      <circle id="Ellipse_3" data-name="Ellipse 3" cx="7.241" cy="7.241" r="7.241" transform="translate(55.784 55.87)" fill="#ffd285"/>
      <g id="Group_34" data-name="Group 34" transform="translate(61.309 59.769)">
        <path id="Path_151" data-name="Path 151" d="M759.172,390.9a1.716,1.716,0,1,0-2.6,1.468l-.311,3.929a.277.277,0,0,0,.276.3h1.843a.277.277,0,0,0,.276-.3l-.311-3.929A1.713,1.713,0,0,0,759.172,390.9Z" transform="translate(-755.74 -389.182)" fill="#4b5482"/>
      </g>
      <g id="Group_35" data-name="Group 35" transform="translate(41.71 50.513)">
        <path id="Path_152" data-name="Path 152" d="M762.679,373.476h-42.63a5.506,5.506,0,0,1,.59-1.149h41.45A5.614,5.614,0,0,1,762.679,373.476Z" transform="translate(-720.049 -372.327)" fill="#fff"/>
      </g>
      <g id="Group_40" data-name="Group 40" transform="translate(21.068 88.262)">
        <circle id="Ellipse_4" data-name="Ellipse 4" cx="5.252" cy="5.252" r="5.252" transform="translate(0 11.314) rotate(-76.768)" fill="#b4d2fa"/>
        <circle id="Ellipse_5" data-name="Ellipse 5" cx="5.252" cy="5.252" r="5.252" transform="matrix(0.707, -0.707, 0.707, 0.707, 16.703, 7.427)" fill="#b4d2fa"/>
        <circle id="Ellipse_6" data-name="Ellipse 6" cx="5.252" cy="5.252" r="5.252" transform="translate(35.641 11.313) rotate(-76.768)" fill="#b4d2fa"/>
        <circle id="Ellipse_7" data-name="Ellipse 7" cx="5.252" cy="5.252" r="5.252" transform="translate(53.259 3.863) rotate(-16.349)" fill="#b4d2fa"/>
        <circle id="Ellipse_8" data-name="Ellipse 8" cx="5.252" cy="5.252" r="5.252" transform="matrix(0.707, -0.707, 0.707, 0.707, 70.164, 7.428)" fill="#b4d2fa"/>
        <path id="Path_153" data-name="Path 153" d="M692.195,449.839l.239,1.676a.133.133,0,0,0,.178.106l1.589-.584a.133.133,0,0,1,.128.23L693,452.311a.133.133,0,0,0,0,.207l1.3,1.084a.133.133,0,0,1-.135.226l-1.57-.631a.133.133,0,0,0-.181.1l-.288,1.668a.133.133,0,0,1-.263,0l-.239-1.676a.133.133,0,0,0-.178-.106l-1.589.584a.133.133,0,0,1-.128-.23l1.332-1.044a.133.133,0,0,0,0-.207l-1.3-1.084a.133.133,0,0,1,.135-.226l1.571.631a.133.133,0,0,0,.181-.1l.288-1.668A.133.133,0,0,1,692.195,449.839Z" transform="translate(-685.71 -444.972)" fill="#fff"/>
        <g id="Group_36" data-name="Group 36" transform="translate(21.868 4.752)">
          <path id="Path_154" data-name="Path 154" d="M724.806,449.839l.239,1.676a.133.133,0,0,0,.178.106l1.589-.584a.133.133,0,0,1,.128.23l-1.332,1.044a.133.133,0,0,0,0,.207l1.3,1.084a.133.133,0,0,1-.135.226l-1.57-.631a.133.133,0,0,0-.181.1l-.288,1.668a.133.133,0,0,1-.263,0l-.239-1.676a.133.133,0,0,0-.178-.106l-1.589.584a.133.133,0,0,1-.128-.23l1.332-1.044a.133.133,0,0,0,0-.207l-1.3-1.084a.133.133,0,0,1,.135-.226l1.571.631a.134.134,0,0,0,.181-.1l.288-1.668A.132.132,0,0,1,724.806,449.839Z" transform="translate(-722.282 -449.724)" fill="#fff"/>
        </g>
        <g id="Group_37" data-name="Group 37" transform="translate(39.776 4.752)">
          <path id="Path_155" data-name="Path 155" d="M757.418,449.839l.239,1.676a.133.133,0,0,0,.178.106l1.589-.584a.133.133,0,0,1,.128.23l-1.332,1.044a.133.133,0,0,0,0,.207l1.3,1.084a.133.133,0,0,1-.135.226l-1.57-.631a.133.133,0,0,0-.181.1l-.288,1.668a.133.133,0,0,1-.263,0l-.239-1.676a.133.133,0,0,0-.178-.106l-1.589.584a.133.133,0,0,1-.128-.23l1.332-1.044a.133.133,0,0,0,0-.207l-1.3-1.084a.133.133,0,0,1,.135-.226l1.571.631a.133.133,0,0,0,.181-.1l.288-1.668A.133.133,0,0,1,757.418,449.839Z" transform="translate(-754.893 -449.724)" fill="#fff"/>
        </g>
        <g id="Group_38" data-name="Group 38" transform="translate(57.683 4.752)">
          <path id="Path_156" data-name="Path 156" d="M790.029,449.839l.239,1.676a.133.133,0,0,0,.178.106l1.589-.584a.133.133,0,0,1,.128.23l-1.332,1.044a.133.133,0,0,0,0,.207l1.3,1.084a.133.133,0,0,1-.135.226l-1.57-.631a.134.134,0,0,0-.181.1l-.288,1.668a.133.133,0,0,1-.263,0l-.239-1.676a.133.133,0,0,0-.178-.106l-1.589.584a.133.133,0,0,1-.128-.23l1.332-1.044a.133.133,0,0,0,0-.207l-1.3-1.084a.133.133,0,0,1,.135-.226l1.57.631a.134.134,0,0,0,.181-.1l.288-1.668A.133.133,0,0,1,790.029,449.839Z" transform="translate(-787.503 -449.724)" fill="#fff"/>
        </g>
        <g id="Group_39" data-name="Group 39" transform="translate(75.591 4.752)">
          <path id="Path_157" data-name="Path 157" d="M822.641,449.839l.239,1.676a.133.133,0,0,0,.178.106l1.589-.584a.133.133,0,0,1,.128.23l-1.332,1.044a.133.133,0,0,0,0,.207l1.3,1.084a.133.133,0,0,1-.135.226l-1.571-.631a.133.133,0,0,0-.181.1l-.288,1.668a.133.133,0,0,1-.263,0l-.239-1.676a.133.133,0,0,0-.178-.106l-1.589.584a.133.133,0,0,1-.128-.23l1.332-1.044a.133.133,0,0,0,0-.207l-1.3-1.084a.133.133,0,0,1,.135-.226l1.571.631a.133.133,0,0,0,.181-.1l.288-1.668A.133.133,0,0,1,822.641,449.839Z" transform="translate(-820.116 -449.724)" fill="#fff"/>
        </g>
      </g>
      <g id="Group_41" data-name="Group 41" transform="translate(103.321)">
        <circle id="Ellipse_9" data-name="Ellipse 9" cx="17.084" cy="17.084" r="17.084" fill="#70bdff"/>
        <path id="Path_158" data-name="Path 158" d="M862.393,282.115a17.086,17.086,0,0,1-13.806,31.146,17.085,17.085,0,1,0,13.806-31.146Z" transform="translate(-839.614 -281.139)" fill="#5daef5"/>
        <path id="Path_159" data-name="Path 159" d="M860.355,294.479,851.3,307.131l-6.306-5.919-3.8,4.834,10.693,7.071,13.649-14.667Z" transform="translate(-836.28 -286.714)" fill="#fff"/>
      </g>
    </g>
    <g id="Group_59" data-name="Group 59" transform="translate(0 170.953)">
      <path id="Path_160" data-name="Path 160" d="M242.437,569.3q-3.1.653-6.4,1.212c5.089,22.059,10.655,46.14,15.756,68.233l18.832-11.613a46.414,46.414,0,0,1,4.754,12.026c.59,14.511-12.641,29.695-22.766,40.408-24.733,23.778-52.761,39.7-90.834,50.726a40.119,40.119,0,0,0-20.4,13.154v0c-2.671,3.332-6.8,10.25-9.381,13.787H0c18.728-19.765,45.017-48.377,57.678-66.153,15.589-45.9-7.777-79.365,38.333-129.339,7.969-10.543,15.01-19.524,16.557-22.376,3.48-6.443,5.139-27.423,8.835-29,.916-.39,3.311.621,6,3,15.54,13.592,11.77,39.33,0,57.021-2.1,3.987-11.961,21.395-7.445,20.193,16.364-9.092,34.679-20.458,51.238-30.382,14.166-8.377,8.185-6.091,20.792-9.784,18.059-5.246,36.6-10.417,55-15.022,11.03-2.592,39.222-9.98,44.755-7.1C304.012,543.089,265.517,566.346,242.437,569.3Z" transform="translate(0 -382.941)" fill="#ffc9d0"/>
      <path id="Path_161" data-name="Path 161" d="M152.981,776.1a39.551,39.551,0,0,0-11.6,9.594c2.622-15.2-15.625-23.177-24.3-23.177s-16.8-8.265-20.861-10.931-16.8-5.333-28.179-1.333c-6.032,2.121-20.93,26.643-33.606,49.233H0c18.728-19.765,45.017-48.377,57.678-66.153,8.834-12.4,4.081-70.759,12.869-91.27,3.861-9.015,15.406-24.779,25.461-38.071.681,2.432.689,4.773-.6,6.564-4.6,6.4-11.106,21.594-18.962,33.594s-7.992,70.808-3.3,81.088c4.873,10.689,21.723,9.284,35.812,22.39,7.152,6.655,21.946,10.356,28.718,12.489C142.995,761.793,150.156,771.861,152.981,776.1Z" transform="translate(0 -425.189)" fill="#ffbac3"/>
      <path id="Path_162" data-name="Path 162" d="M327.828,737.523c-3.535-1.769-7.057-3.482-10-4.8-10.268-4.608-61.746.4-69.6,0s-45.455-7-35.229-21.239c10.8-15.033,6.059-70.558,1.046-79.667,6.374-3.3,36.013-20.716,52.4-30.64l77.021,1.545,4.469,4.984a142.926,142.926,0,0,1-16.648,3.785l15.755,68.233,18.833-11.611s7.565,4.819,8.042,10.5C375.569,698.331,360.481,713.949,327.828,737.523Z" transform="translate(-95.246 -423.92)" fill="#ffbac3"/>
      <path id="Path_163" data-name="Path 163" d="M376.239,358.179H249.327a8.756,8.756,0,0,0-8.928,8.571V598.693a8.751,8.751,0,0,0,8.928,8.565H376.239a8.756,8.756,0,0,0,8.934-8.565V366.75A8.761,8.761,0,0,0,376.239,358.179Z" transform="translate(-108.39 -314.358)" fill="#fff"/>
      <path id="Path_164" data-name="Path 164" d="M376.031,345.444H240.164a9.124,9.124,0,0,0-9.086,9.165V598.966a9.128,9.128,0,0,0,9.086,9.174H376.031a9.124,9.124,0,0,0,9.081-9.174V354.609A9.121,9.121,0,0,0,376.031,345.444ZM246.3,601.516a8.635,8.635,0,0,1-8.7-8.565V361.007a8.642,8.642,0,0,1,8.714-8.57h48.971a1.171,1.171,0,0,1,1.173,1.13,11.746,11.746,0,0,0,23.442,0,1.169,1.169,0,0,1,1.169-1.13h48.98a8.743,8.743,0,0,1,6.981,3.443,7.041,7.041,0,0,1,.47.684,7.563,7.563,0,0,1,.4.725,8.319,8.319,0,0,1,.331.771c.1.263.182.529.254.8a8.315,8.315,0,0,1,.275,2.142V592.952a8.318,8.318,0,0,1-.275,2.142c-.073.271-.157.541-.254.8s-.208.517-.331.767a8.207,8.207,0,0,1-.4.73,8.768,8.768,0,0,1-2.58,2.659,8.505,8.505,0,0,1-1.089.617s0,0,0,0a8.354,8.354,0,0,1-1.182.462,8.826,8.826,0,0,1-2.588.383H246.3Z" transform="translate(-104.187 -308.616)" fill="#5a6187"/>
      <path id="Path_165" data-name="Path 165" d="M360.144,357.3a6.223,6.223,0,1,1,6.222,6.123A6.172,6.172,0,0,1,360.144,357.3Z" transform="translate(-162.38 -311.204)" fill="#fff"/>
      <path id="Path_166" data-name="Path 166" d="M362.286,358.255a5.046,5.046,0,1,1,5.046,4.965A5.006,5.006,0,0,1,362.286,358.255Z" transform="translate(-163.346 -312.154)" fill="#5a6187"/>
      <path id="Path_167" data-name="Path 167" d="M371.475,357.194a1.444,1.444,0,1,1,1.444,1.421A1.432,1.432,0,0,1,371.475,357.194Z" transform="translate(-167.489 -313.273)" fill="#fff"/>
      <circle id="Ellipse_10" data-name="Ellipse 10" cx="6.825" cy="6.825" r="6.825" transform="translate(149.92 125.498) rotate(-50.726)" fill="#70bdff"/>
      <circle id="Ellipse_11" data-name="Ellipse 11" cx="6.825" cy="6.825" r="6.825" transform="translate(173.052 124.09) rotate(-42.507)" fill="#70bdff"/>
      <circle id="Ellipse_12" data-name="Ellipse 12" cx="6.825" cy="6.825" r="6.825" transform="translate(196.23 123.632) rotate(-39.66)" fill="#70bdff"/>
      <circle id="Ellipse_13" data-name="Ellipse 13" cx="6.825" cy="6.825" r="6.825" transform="matrix(0.707, -0.707, 0.707, 0.707, 219.348, 124.516)" fill="#70bdff"/>
      <circle id="Ellipse_14" data-name="Ellipse 14" cx="6.825" cy="6.825" r="6.825" transform="matrix(0.707, -0.707, 0.707, 0.707, 242.506, 124.516)" fill="#70bdff"/>
      <path id="Path_168" data-name="Path 168" d="M288.224,498.951l.31,2.178a.173.173,0,0,0,.231.138l2.065-.759a.173.173,0,0,1,.166.3l-1.731,1.357a.173.173,0,0,0,0,.269l1.69,1.408a.173.173,0,0,1-.175.294l-2.041-.82a.173.173,0,0,0-.235.131l-.375,2.167a.173.173,0,0,1-.342,0l-.31-2.178a.173.173,0,0,0-.231-.138l-2.065.759a.173.173,0,0,1-.166-.3l1.731-1.357a.173.173,0,0,0,0-.269l-1.69-1.408a.173.173,0,0,1,.175-.294l2.041.82a.173.173,0,0,0,.235-.131l.375-2.167A.173.173,0,0,1,288.224,498.951Z" transform="translate(-128.474 -377.762)" fill="#fff"/>
      <g id="Group_43" data-name="Group 43" transform="translate(179.741 121.04)">
        <path id="Path_169" data-name="Path 169" d="M330.6,498.951l.31,2.178a.173.173,0,0,0,.231.138l2.065-.759a.173.173,0,0,1,.166.3l-1.731,1.357a.173.173,0,0,0,0,.269l1.69,1.408a.173.173,0,0,1-.175.294l-2.041-.82a.173.173,0,0,0-.235.131l-.374,2.167a.173.173,0,0,1-.342,0l-.31-2.178a.173.173,0,0,0-.231-.138l-2.065.759a.173.173,0,0,1-.166-.3l1.731-1.357a.173.173,0,0,0,0-.269l-1.69-1.408a.173.173,0,0,1,.175-.294l2.041.82a.173.173,0,0,0,.235-.131l.375-2.167A.173.173,0,0,1,330.6,498.951Z" transform="translate(-327.322 -498.802)" fill="#fff"/>
      </g>
      <g id="Group_44" data-name="Group 44" transform="translate(203.012 121.04)">
        <path id="Path_170" data-name="Path 170" d="M372.981,498.951l.31,2.178a.173.173,0,0,0,.231.138l2.065-.759a.173.173,0,0,1,.166.3l-1.731,1.357a.173.173,0,0,0,0,.269l1.69,1.408a.173.173,0,0,1-.175.294l-2.041-.82a.173.173,0,0,0-.235.131l-.375,2.167a.173.173,0,0,1-.342,0l-.31-2.178a.173.173,0,0,0-.231-.138l-2.065.759a.173.173,0,0,1-.166-.3L371.5,502.4a.173.173,0,0,0,0-.269l-1.69-1.408a.173.173,0,0,1,.175-.294l2.041.82a.173.173,0,0,0,.235-.131l.374-2.167A.173.173,0,0,1,372.981,498.951Z" transform="translate(-369.701 -498.802)" fill="#fff"/>
      </g>
      <g id="Group_45" data-name="Group 45" transform="translate(226.283 121.04)">
        <path id="Path_171" data-name="Path 171" d="M415.359,498.951l.31,2.178a.173.173,0,0,0,.231.138l2.065-.759a.173.173,0,0,1,.166.3l-1.731,1.357a.173.173,0,0,0,0,.269l1.69,1.408a.173.173,0,0,1-.175.294l-2.041-.82a.173.173,0,0,0-.235.131l-.375,2.167a.173.173,0,0,1-.342,0l-.31-2.178a.173.173,0,0,0-.231-.138l-2.065.759a.173.173,0,0,1-.166-.3l1.731-1.357a.173.173,0,0,0,0-.269l-1.69-1.408a.173.173,0,0,1,.175-.294l2.041.82a.173.173,0,0,0,.235-.131l.375-2.167A.173.173,0,0,1,415.359,498.951Z" transform="translate(-412.079 -498.802)" fill="#fff"/>
      </g>
      <g id="Group_46" data-name="Group 46" transform="translate(249.554 121.04)">
        <path id="Path_172" data-name="Path 172" d="M457.738,498.951l.31,2.178a.173.173,0,0,0,.231.138l2.065-.759a.173.173,0,0,1,.166.3l-1.731,1.357a.173.173,0,0,0,0,.269l1.69,1.408a.173.173,0,0,1-.175.294l-2.041-.82a.173.173,0,0,0-.235.131l-.375,2.167a.173.173,0,0,1-.342,0l-.31-2.178a.173.173,0,0,0-.231-.138l-2.065.759a.173.173,0,0,1-.166-.3l1.731-1.357a.173.173,0,0,0,0-.269l-1.69-1.408a.173.173,0,0,1,.175-.294l2.041.82a.173.173,0,0,0,.235-.131l.375-2.167A.173.173,0,0,1,457.738,498.951Z" transform="translate(-454.458 -498.802)" fill="#fff"/>
      </g>
      <g id="Group_47" data-name="Group 47" transform="translate(181.76 143.526)">
        <circle id="Ellipse_15" data-name="Ellipse 15" cx="24.834" cy="24.834" r="24.834" fill="#70bdff"/>
        <path id="Path_173" data-name="Path 173" d="M374.824,542.336a24.837,24.837,0,0,1-20.069,45.276,24.837,24.837,0,1,0,20.069-45.276Z" transform="translate(-341.71 -540.917)" fill="#5daef5"/>
        <path id="Path_174" data-name="Path 174" d="M371.862,560.308,358.693,578.7l-9.166-8.6-5.521,7.027L359.549,587.4l19.841-21.32Z" transform="translate(-336.864 -549.02)" fill="#fff"/>
      </g>
      <g id="Group_48" data-name="Group 48" transform="translate(241.109 69.173)">
        <path id="Path_175" data-name="Path 175" d="M462.093,407.719H440.764a1.685,1.685,0,0,1-1.685-1.685h0a1.685,1.685,0,0,1,1.685-1.685h21.329a1.685,1.685,0,0,1,1.685,1.685h0A1.685,1.685,0,0,1,462.093,407.719Zm0,7.366H440.764a1.685,1.685,0,0,1-1.685-1.685h0a1.685,1.685,0,0,1,1.685-1.685h21.329a1.685,1.685,0,0,1,1.685,1.685h0A1.685,1.685,0,0,1,462.093,415.084Zm0,7.366H440.764a1.685,1.685,0,0,1-1.685-1.685h0a1.685,1.685,0,0,1,1.685-1.685h21.329a1.685,1.685,0,0,1,1.685,1.685h0A1.685,1.685,0,0,1,462.093,422.45Z" transform="translate(-439.079 -404.348)" fill="#d3dcf0"/>
      </g>
      <g id="Group_49" data-name="Group 49" transform="translate(147.049 72.782)">
        <rect id="Rectangle_19" data-name="Rectangle 19" width="75.945" height="13.194" fill="#d3dcf0"/>
      </g>
      <g id="Group_50" data-name="Group 50" transform="translate(163.992 216.109)">
        <path id="Path_176" data-name="Path 176" d="M381.2,673.92H299.638a1,1,0,0,1-1-.995h0a1,1,0,0,1,1-1H381.2a1,1,0,0,1,1,1h0A1,1,0,0,1,381.2,673.92Z" transform="translate(-298.643 -671.93)" fill="#d3dcf0"/>
      </g>
      <g id="Group_51" data-name="Group 51" transform="translate(147.049 223.192)">
        <path id="Path_177" data-name="Path 177" d="M287.89,686.819H268.782a1,1,0,0,1-1-.995h0a1,1,0,0,1,1-.995H287.89a1,1,0,0,1,1,.995h0A1,1,0,0,1,287.89,686.819Zm96.4,0H365.184a1,1,0,0,1-1-.995h0a1,1,0,0,1,1-.995h19.108a1,1,0,0,1,1,.995h0A1,1,0,0,1,384.292,686.819Zm0,8.873h-48.08a1,1,0,0,1-1-.995h0a1,1,0,0,1,1-.995h48.08a1,1,0,0,1,1,.995h0A1,1,0,0,1,384.292,695.692Zm-25.3-8.873H295.671a1,1,0,0,1-.995-.995h0a1,1,0,0,1,.995-.995h63.323a1,1,0,0,1,.995.995h0A1,1,0,0,1,358.994,686.819Zm-28.186,8.873H269.015a1,1,0,0,1-.995-.995h0a1,1,0,0,1,.995-.995h61.794a1,1,0,0,1,.995.995h0A1,1,0,0,1,330.808,695.692Z" transform="translate(-267.787 -684.829)" fill="#d3dcf0"/>
      </g>
      <g id="Group_52" data-name="Group 52" transform="translate(147.281 279.513)">
        <path id="Path_178" data-name="Path 178" d="M301.486,789.384h-32.28a1,1,0,0,1-1-.995h0a1,1,0,0,1,1-1h32.28a1,1,0,0,1,1,1h0A1,1,0,0,1,301.486,789.384Z" transform="translate(-268.211 -787.394)" fill="#d3dcf0"/>
      </g>
      <g id="Group_53" data-name="Group 53" transform="translate(186.761 279.513)">
        <path id="Path_179" data-name="Path 179" d="M400.332,789.384H341.1a1,1,0,0,1-1-.995h0a1,1,0,0,1,1-1h59.23a1,1,0,0,1,1,1h0A1,1,0,0,1,400.332,789.384Z" transform="translate(-340.106 -787.394)" fill="#d3dcf0"/>
      </g>
      <g id="Group_56" data-name="Group 56" transform="translate(228.659 167.692)">
        <path id="Path_180" data-name="Path 180" d="M473.446,639.258c9.482,5.121,10.046,21.5-3.99,26.206-13.8,4.65-37.875,13.739-40.752.485-1.9-7.685,5.054-14.423,11.2-18.168-22.358,2.459-19.943-16.434-3.447-25.09-22.382,5.087-27.447-14.1-7.917-24.17C439,593.446,470.4,583.769,472.05,583.759c8.439-.049,11.772,2.972,13.472,10.806,1.451,6.75-3.773,12.2-10.58,16.114C487.7,613.69,490.087,632.594,473.446,639.258Z" transform="translate(-416.406 -583.758)" fill="#ffc9d0"/>
        <path id="Path_181" data-name="Path 181" d="M440.056,618.737a20.681,20.681,0,0,1,2.334,11.912,2.791,2.791,0,0,1-2.176,2.535c-3.825.646-12.524,1.595-13.523-2.916-1.386-6.26,6.47-10.858,10.215-12.665A2.378,2.378,0,0,1,440.056,618.737Zm4.8,22.94c3.481,3.249,4.523,8.339,2.565,13.584A2.641,2.641,0,0,1,445.466,657c-3.527.636-12.947,1.87-13.99-2.835-1.466-6.618,7.4-11.381,10.817-12.948A2.294,2.294,0,0,1,444.855,641.677Zm6.212,25.171a13.979,13.979,0,0,1,2.516,12.98,2.732,2.732,0,0,1-2.046,2.005c-3.6.64-12.862,1.812-13.9-2.853-1.436-6.485,7.048-11.188,10.6-12.85A2.333,2.333,0,0,1,451.067,666.848Z" transform="translate(-420.97 -598.913)" fill="#ffd9de"/>
        <g id="Group_54" data-name="Group 54" transform="translate(20.244 55.5)">
          <path id="Path_182" data-name="Path 182" d="M491.543,685.768c-7.241,2.948-27.316,7.865-38.27,9.842,1.035-.8,2.126-1.547,3.251-2.259l33.544-8.523A12.334,12.334,0,0,1,491.543,685.768Z" transform="translate(-453.273 -684.828)" fill="#ffbac3"/>
        </g>
        <g id="Group_55" data-name="Group 55" transform="translate(17.361 26.952)">
          <path id="Path_183" data-name="Path 183" d="M491.778,633.722c-10.589,3.774-29.945,9.364-43.755,12.839.866-.6,1.764-1.178,2.687-1.741l38.6-11.981A14,14,0,0,1,491.778,633.722Z" transform="translate(-448.023 -632.839)" fill="#ffbac3"/>
        </g>
      </g>
      <g id="Group_57" data-name="Group 57" transform="translate(105.86 9.26)">
        <path id="Path_184" data-name="Path 184" d="M258.978,300.337v38.284a5.089,5.089,0,0,1-5.094,5.094h-56.01a5.094,5.094,0,0,1-5.095-5.094V300.337a5.1,5.1,0,0,1,5.094-5.094h56.01a5.093,5.093,0,0,1,5.095,5.094Z" transform="translate(-192.779 -295.242)" fill="#ffbc47"/>
        <path id="Path_185" data-name="Path 185" d="M227.441,334.686l-31.208,25.685a5.062,5.062,0,0,0,1.252.744l29.946-24.648L256.862,361.3a5.062,5.062,0,0,0,1.371-.633Z" transform="translate(-194.336 -313.026)" fill="#fff"/>
        <path id="Path_186" data-name="Path 186" d="M258.978,300.336l-1.527,4.13L234.513,320.79a14.383,14.383,0,0,1-16.677,0L194.9,304.466l-2.119-4.13a5.1,5.1,0,0,1,5.094-5.094h56.01a5.1,5.1,0,0,1,5.095,5.094Z" transform="translate(-192.779 -295.241)" fill="#fff"/>
        <path id="Path_187" data-name="Path 187" d="M259.148,298.425l-2.761,5.435L234.33,319.733a13.014,13.014,0,0,1-15.227,0L197.046,303.86l-3.065-6.032a5.111,5.111,0,0,1,4.435-2.586h56.01a5.1,5.1,0,0,1,4.723,3.184Z" transform="translate(-193.321 -295.241)" fill="#ffcb70"/>
      </g>
      <g id="Group_58" data-name="Group 58" transform="translate(96.038)">
        <circle id="Ellipse_16" data-name="Ellipse 16" cx="8.285" cy="8.285" r="8.285" transform="matrix(0.707, -0.707, 0.707, 0.707, 0, 11.716)" fill="#db6565"/>
      </g>
    </g>
    <g id="Group_60" data-name="Group 60" transform="translate(671.107 180.557)">
      <path id="Path_188" data-name="Path 188" d="M1235.824,323.394c-.466,0-.937-.031-1.4-.081a.626.626,0,1,1,.135-1.245,12.837,12.837,0,0,0,2.622.013.626.626,0,1,1,.123,1.246A13.756,13.756,0,0,1,1235.824,323.394Zm-4.025-.661a.625.625,0,0,1-.191-.032,13.747,13.747,0,0,1-2.628-1.187.626.626,0,1,1,.633-1.081,12.478,12.478,0,0,0,2.388,1.078.626.626,0,0,1-.2,1.221Zm8.133.042a.626.626,0,0,1-.185-1.223,12.471,12.471,0,0,0,2.4-1.054.626.626,0,1,1,.621,1.087,13.794,13.794,0,0,1-2.639,1.16A.611.611,0,0,1,1239.931,322.775Zm-12.86-2.8a.623.623,0,0,1-.416-.163,13.9,13.9,0,0,1-1.919-2.15.626.626,0,0,1,1.016-.732,12.614,12.614,0,0,0,1.746,1.955.626.626,0,0,1,.042.885A.612.612,0,0,1,1227.071,319.97Zm17.616.091a.626.626,0,0,1-.411-1.094,12.653,12.653,0,0,0,1.766-1.938.626.626,0,1,1,1.008.742,13.914,13.914,0,0,1-1.941,2.13A.621.621,0,0,1,1244.687,320.062Zm-20.812-4.531a.627.627,0,0,1-.568-.374,13.729,13.729,0,0,1-.879-2.746.626.626,0,1,1,1.226-.254,12.474,12.474,0,0,0,.8,2.5.626.626,0,0,1-.321.825A.632.632,0,0,1,1223.875,315.531Zm24.057.123a.616.616,0,0,1-.252-.056.626.626,0,0,1-.312-.829,12.426,12.426,0,0,0,.824-2.488.626.626,0,1,1,1.223.267,13.73,13.73,0,0,1-.906,2.737A.63.63,0,0,1,1247.932,315.654Zm-25.172-5.481a.626.626,0,0,1-.621-.632v-.054a13.886,13.886,0,0,1,.322-2.864.626.626,0,0,1,1.223.269,12.636,12.636,0,0,0-.293,2.6v.054A.624.624,0,0,1,1222.76,310.172Zm26.336.134a.626.626,0,0,1-.621-.63,12.6,12.6,0,0,0-.255-2.608.626.626,0,1,1,1.227-.251,13.885,13.885,0,0,1,.281,2.868.626.626,0,0,1-.63.622Zm-25.155-5.533a.618.618,0,0,1-.254-.057.626.626,0,0,1-.31-.829,13.849,13.849,0,0,1,1.463-2.484.626.626,0,0,1,1.007.745,12.544,12.544,0,0,0-1.331,2.259A.632.632,0,0,1,1223.941,304.773Zm24.057.173a.626.626,0,0,1-.568-.375,12.579,12.579,0,0,0-1.3-2.277.626.626,0,0,1,1.018-.73,13.792,13.792,0,0,1,1.427,2.5.626.626,0,0,1-.579.878Zm-20.806-4.574a.627.627,0,0,1-.411-1.095,13.886,13.886,0,0,1,2.343-1.678.626.626,0,1,1,.619,1.089,12.6,12.6,0,0,0-2.131,1.526A.611.611,0,0,1,1227.191,300.372Zm17.616.127a.623.623,0,0,1-.417-.164,12.608,12.608,0,0,0-2.109-1.557.626.626,0,0,1,.635-1.08,13.843,13.843,0,0,1,2.319,1.712.626.626,0,0,1-.428,1.088Zm-12.855-2.831a.626.626,0,0,1-.183-1.223,13.743,13.743,0,0,1,2.825-.576.626.626,0,1,1,.12,1.246,12.486,12.486,0,0,0-2.567.523A.614.614,0,0,1,1231.952,297.669Zm8.133.059a.618.618,0,0,1-.192-.032,12.523,12.523,0,0,0-2.56-.56.626.626,0,1,1,.138-1.244,13.77,13.77,0,0,1,2.816.617.626.626,0,0,1,.4.792A.619.619,0,0,1,1240.085,297.728Zm1.444,5.551-6.26,8.593-4.275-4.079-2.622,3.282,7.266,4.891c3.136-3.315,6.886-5.474,10.022-8.788C1244.489,306.262,1242.7,304.192,1241.529,303.279Z" transform="translate(-1222.139 -295.867)" fill="#9dc8ff"/>
    </g>
    <g id="Group_61" data-name="Group 61" transform="translate(102.206 76.278)">
      <path id="Path_189" data-name="Path 189" d="M199.807,133.494c-.466,0-.937-.031-1.4-.081a.626.626,0,0,1,.136-1.245,12.835,12.835,0,0,0,2.622.013.626.626,0,1,1,.123,1.247A14.055,14.055,0,0,1,199.807,133.494Zm-4.024-.661a.609.609,0,0,1-.191-.032,13.753,13.753,0,0,1-2.628-1.187.626.626,0,0,1,.633-1.081,12.48,12.48,0,0,0,2.388,1.078.627.627,0,0,1-.2,1.221Zm8.135.042a.626.626,0,0,1-.185-1.223,12.471,12.471,0,0,0,2.4-1.054.626.626,0,1,1,.621,1.087,13.753,13.753,0,0,1-2.639,1.16A.607.607,0,0,1,203.918,132.875Zm-12.861-2.8a.623.623,0,0,1-.416-.163,13.907,13.907,0,0,1-1.919-2.15.626.626,0,0,1,1.016-.733,12.643,12.643,0,0,0,1.746,1.956.626.626,0,0,1-.426,1.089Zm17.614.091a.626.626,0,0,1-.411-1.094,12.682,12.682,0,0,0,1.766-1.938.626.626,0,1,1,1.008.742,13.919,13.919,0,0,1-1.941,2.13A.624.624,0,0,1,208.671,130.162Zm-20.812-4.531a.627.627,0,0,1-.568-.374,13.731,13.731,0,0,1-.879-2.746.626.626,0,0,1,1.226-.254,12.475,12.475,0,0,0,.8,2.5.626.626,0,0,1-.321.825A.617.617,0,0,1,187.859,125.63Zm24.057.124a.627.627,0,0,1-.565-.885,12.438,12.438,0,0,0,.824-2.487.626.626,0,0,1,1.224.267,13.727,13.727,0,0,1-.907,2.737A.629.629,0,0,1,211.916,125.754Zm-25.17-5.482a.626.626,0,0,1-.621-.631v-.054a13.891,13.891,0,0,1,.322-2.864.626.626,0,1,1,1.223.269,12.645,12.645,0,0,0-.293,2.6v.054A.625.625,0,0,1,186.746,120.272Zm26.337.135a.626.626,0,0,1-.621-.63,12.588,12.588,0,0,0-.255-2.608.626.626,0,1,1,1.227-.251,13.875,13.875,0,0,1,.281,2.868.626.626,0,0,1-.63.622Zm-25.159-5.533a.619.619,0,0,1-.254-.057.626.626,0,0,1-.31-.829,13.847,13.847,0,0,1,1.463-2.484.626.626,0,1,1,1.007.745,12.555,12.555,0,0,0-1.331,2.259A.625.625,0,0,1,187.924,114.873Zm24.058.173a.627.627,0,0,1-.569-.375,12.6,12.6,0,0,0-1.3-2.277.626.626,0,1,1,1.018-.73,13.779,13.779,0,0,1,1.427,2.5.626.626,0,0,1-.578.878Zm-20.8-4.574a.627.627,0,0,1-.411-1.095,13.89,13.89,0,0,1,2.343-1.678.626.626,0,0,1,.619,1.089,12.627,12.627,0,0,0-2.131,1.526A.621.621,0,0,1,191.179,110.472Zm17.613.127a.623.623,0,0,1-.417-.164,12.614,12.614,0,0,0-2.109-1.557.626.626,0,1,1,.635-1.08,13.845,13.845,0,0,1,2.319,1.712.626.626,0,0,1-.428,1.088Zm-12.855-2.831a.626.626,0,0,1-.183-1.223,13.742,13.742,0,0,1,2.825-.576.626.626,0,1,1,.12,1.247,12.518,12.518,0,0,0-2.567.523A.628.628,0,0,1,195.937,107.769Zm8.136.058a.625.625,0,0,1-.193-.032,12.517,12.517,0,0,0-2.56-.56.626.626,0,1,1,.138-1.244,13.769,13.769,0,0,1,2.816.617.626.626,0,0,1-.2,1.22Zm1.441,5.551-6.26,8.593-4.275-4.079-2.622,3.282,7.266,4.891c3.136-3.315,6.887-5.474,10.022-8.788C208.472,116.362,206.685,114.292,205.513,113.378Z" transform="translate(-186.125 -105.967)" fill="#9dc8ff"/>
    </g>
    <g id="Group_62" data-name="Group 62" transform="translate(662.809 134.889)">
      <circle id="Ellipse_17" data-name="Ellipse 17" cx="5.202" cy="5.202" r="5.202" transform="matrix(0.707, -0.707, 0.707, 0.707, 0, 7.357)" fill="#b4d2fa"/>
    </g>
    <g id="Group_63" data-name="Group 63" transform="translate(686.371 264.435)">
      <circle id="Ellipse_18" data-name="Ellipse 18" cx="5.202" cy="5.202" r="5.202" transform="matrix(0.707, -0.707, 0.707, 0.707, 0, 7.357)" fill="#b4d2fa"/>
    </g>
    <g id="Group_64" data-name="Group 64" transform="translate(635.112 84.847)">
      <circle id="Ellipse_19" data-name="Ellipse 19" cx="5.202" cy="5.202" r="5.202" transform="matrix(0.707, -0.707, 0.707, 0.707, 0, 7.357)" fill="#b4d2fa"/>
    </g>
    <g id="Group_65" data-name="Group 65" transform="translate(165.088 40.12)">
      <path id="Path_190" data-name="Path 190" d="M300.742,44.291a5.2,5.2,0,1,1,4.067,6.132A5.2,5.2,0,0,1,300.742,44.291Z" transform="translate(-300.638 -40.12)" fill="#b4d2fa"/>
    </g>
    <g id="Group_66" data-name="Group 66" transform="translate(96.732 118.093)">
      <circle id="Ellipse_20" data-name="Ellipse 20" cx="5.202" cy="5.202" r="5.202" transform="translate(0 10.129) rotate(-76.768)" fill="#b4d2fa"/>
    </g>
    <g id="Group_67" data-name="Group 67" transform="translate(670.98 113.302)">
      <circle id="Ellipse_21" data-name="Ellipse 21" cx="7.918" cy="7.918" r="7.918" transform="translate(0 15.413) rotate(-76.714)" fill="#b4d2fa"/>
    </g>
    <g id="Group_68" data-name="Group 68" transform="translate(204.579 51.257)">
      <path id="Path_191" data-name="Path 191" d="M372.713,66.75a7.919,7.919,0,1,1,6.19,9.332A7.918,7.918,0,0,1,372.713,66.75Z" transform="translate(-372.554 -60.401)" fill="#b4d2fa"/>
    </g>
    <g id="Group_69" data-name="Group 69" transform="translate(491.496 76.689)">
      <path id="Path_192" data-name="Path 192" d="M942.653,106.794V219.5a47.339,47.339,0,0,1-33.522-13.847,48.506,48.506,0,0,1-13.977-33.561A57.08,57.08,0,0,0,901.583,151a58.326,58.326,0,0,0-6.531-32.7c7.161-1.593,15.962-5.558,24.948-11.455l22.532-.043h.121Z" transform="translate(-895.052 -106.751)" fill="#326ab3"/>
      <path id="Path_193" data-name="Path 193" d="M947.308,116.872V218.508a41.7,41.7,0,0,1-29.62-12.235,43.071,43.071,0,0,1-12.311-28.347,62.148,62.148,0,0,0,2.043-51.586,94.806,94.806,0,0,0,18.872-9.426Z" transform="translate(-899.707 -111.295)" fill="#9bbdeb"/>
      <path id="Path_194" data-name="Path 194" d="M949.649,122.206v95.783a38.925,38.925,0,0,1-27.625-11.416,40.267,40.267,0,0,1-11.455-25.863,63.756,63.756,0,0,0,2.682-50.119,99.548,99.548,0,0,0,16.306-8.347Z" transform="translate(-902.048 -113.7)" fill="#b4d2fa"/>
      <path id="Path_195" data-name="Path 195" d="M964.962,197.028v14.142L944.531,199.22l7.857-11.885,12.1,10.458Z" transform="translate(-917.361 -143.065)" fill="#fff"/>
      <path id="Path_196" data-name="Path 196" d="M1029.232,171.881a48.486,48.486,0,0,1-13.847,33.609,47.363,47.363,0,0,1-33.561,13.972h-.087v-5.534h.077a41.683,41.683,0,0,0,29.649-12.345,43.1,43.1,0,0,0,12.21-28.4,61.981,61.981,0,0,1-6.454-21.811,62.787,62.787,0,0,1,4.212-29.765,94.652,94.652,0,0,1-18.906-9.359l-20.789.039v-5.534l22.406-.043c9.01,5.868,17.826,9.8,24.992,11.363a58.294,58.294,0,0,0-6.41,32.728A57.08,57.08,0,0,0,1029.232,171.881Z" transform="translate(-934.136 -106.716)" fill="#2860a8"/>
      <path id="Path_197" data-name="Path 197" d="M1023.676,177.736a43.1,43.1,0,0,1-12.21,28.4,41.683,41.683,0,0,1-29.649,12.345h-.077v-2.924h.073a38.891,38.891,0,0,0,27.65-11.518,40.27,40.27,0,0,0,11.363-25.912,63.692,63.692,0,0,1-2.871-50.1,99.513,99.513,0,0,1-16.335-8.288l-19.879.039v-2.929l20.789-.039a94.684,94.684,0,0,0,18.906,9.359,62.786,62.786,0,0,0-4.212,29.765A61.857,61.857,0,0,0,1023.676,177.736Z" transform="translate(-934.137 -111.264)" fill="#8fb4e6"/>
      <path id="Path_198" data-name="Path 198" d="M1020.819,180.528a40.274,40.274,0,0,1-11.363,25.912,38.891,38.891,0,0,1-27.65,11.518h-.073V181.772l.019.01,26.783-29.039-11.963-9.053-14.839,23.941V122.174l19.879-.039a99.515,99.515,0,0,0,16.335,8.288,63.7,63.7,0,0,0,2.871,50.1Z" transform="translate(-934.135 -113.668)" fill="#a7c9f5"/>
      <path id="Path_199" data-name="Path 199" d="M1008.542,170.44,981.757,199.48l-.02-.01V185.328l14.839-23.941Z" transform="translate(-934.136 -131.366)" fill="#f0f2fa"/>
    </g>
  </g>
</svg>
