<svg xmlns="http://www.w3.org/2000/svg" enable-background="new 0 0 80 80" viewBox="0 0 80 80"><path fill="#54C0EB" d="M71.9992,44.2004c0,4.05-0.75,7.92-2.1401,11.49c-0.51,1.34-1.1099,2.63-1.79,3.87
			c-1.04,1.9-2.27,3.67-3.6499,5.31c-0.25,0.29-0.5,0.58-0.76,0.87c-0.5901,0.65-1.21,1.28-1.8501,1.87
			c-0.0901,0.09-0.1799,0.18-0.27,0.26c-1.8,1.64-3.7898,3.07-5.9299,4.27c-4.6201,2.59-9.9399,4.06-15.6099,4.06
			c-5.6702,0-10.9902-1.47-15.6101-4.06c-2.04-1.13-3.9299-2.49-5.6599-4.03c-2.0801-1.85-3.9102-3.96-5.4502-6.29
			c-0.01-0.01,0-0.01,0-0.01c-0.9099-1.37-1.71-2.82-2.3999-4.34c0-0.0099,0-0.0099,0-0.0099c-1.8501-4.04-2.8799-8.53-2.8799-13.26
			c0-6.62,2.0098-12.77,5.45-17.88c0.28-0.4,0.5598-0.8,0.8499-1.18c1.0901-1.48,2.3201-2.86,3.6501-4.14
			c0.45-0.42,0.9099-0.83,1.3799-1.23c0.24-0.21,0.49-0.41,0.74-0.61c2.21-1.7599,4.6602-3.24,7.29-4.37
			c3.8799-1.67,8.1499-2.59,12.6401-2.59c1.4697,0,2.9099,0.1,4.3198,0.29h0.01c2.26,0.3,4.4399,0.84,6.52,1.59
			c0.9199,0.34,1.8301,0.71,2.72,1.13C64.4591,20.3204,71.9992,31.3804,71.9992,44.2004z"/><rect width="2.719" height="16.465" x="50.849" y="9.184" fill="#2B3B4E"/><path fill="#22303F" d="M53.5685,16.8388V9.1835h-2.719v7.6553c0,0.7508,0.6087,1.3595,1.3595,1.3595h0
					C52.9598,18.1982,53.5685,17.5896,53.5685,16.8388z"/><path fill="#CED5E0" d="M56.3781,22.875v1.3108h-8.3382V22.875c0-0.6675,0.5464-1.2137,1.2137-1.2137h5.9108
						C55.832,21.6613,56.3781,22.2075,56.3781,22.875z"/><path fill="#E6E9EE" d="M55.1667,21.6637H51.903c-0.6958,0-1.2599,0.5641-1.2599,1.2599v0
						c0,0.6958,0.5641,1.2599,1.2599,1.2599h4.4751v-1.3083C56.3781,22.2088,55.833,21.6637,55.1667,21.6637z"/><path fill="#EFF1F4" d="M63.6596,39.6441c-0.6471-2.9607-0.9887-6.671-1.0454-6.8154
					c-0.0803-0.2737-0.1902-0.4461-0.4175-0.6721c-1.2032-1.3584-3.6492-4.4435-3.7314-4.5444
					c-0.1571-0.1893-0.4037-0.3035-0.7369-0.2707c-3.2679,0.1164-7.3188,0.1332-11.0388,0.0041
					c-0.6637-0.0659-0.8218,0.4452-0.947,0.5405c-0.5648,0.7272-1.1488,1.441-1.7408,2.1493
					c-0.5932,0.7072-1.1645,1.4301-1.7758,2.1245c-0.227,0.2253-0.3369,0.3964-0.4175,0.6693
					c-0.0332,0.083-0.0524,0.4004-0.0785,0.6057c-0.2567,1.9798-0.5063,4.0959-0.9716,6.2093
					c-0.4701-2.1368-0.7261-4.3183-0.9713-6.2093c-0.0201-0.2544-0.0596-0.3976-0.0625-0.7737
					c-0.0086-0.6453,0.2264-1.3651,0.5508-1.8762c0.4486-0.8093,0.9375-1.5902,1.4042-2.3866
					c0.4682-0.7954,0.944-1.5854,1.4392-2.3619c0.1-0.0948,1.0464-2.14,3.5708-2.1443c3.3793-0.1172,7.3975-0.1255,11.0388,0.0041
					c1.3127,0.0021,2.6544,0.6928,3.3836,1.8502c0.0608,0.1004,2.1581,3.4649,3.0259,5.0418
					c0.3245,0.5104,0.5594,1.2289,0.5508,1.8734C64.6849,33.2031,64.1935,37.1996,63.6596,39.6441z"/><path fill="#FFF" d="M64.1379,30.7881c-0.2774-0.504-2.0905-3.5717-2.8425-4.7491
					c-0.0902-0.1093-0.4363-0.8835-1.3853-1.4925c-0.6362-0.4188-1.4715-0.6493-2.1817-0.6504
					c-2.5925-0.0924-5.4036-0.121-8.1777-0.0645c-0.9703,0.0198-1.7452,0.8167-1.7452,1.7871v0
					c0,0.9705,0.7749,1.7674,1.7452,1.7871c2.7489,0.056,5.6289,0.0262,8.1777-0.0645c0.6737-0.0665,0.8168,0.44,0.9509,0.5418
					c0.8615,1.1105,3.1435,3.851,3.5175,4.2733c0.2273,0.226,0.3372,0.3985,0.4175,0.6721
					c0.0329,0.0838,0.0522,0.4007,0.0782,0.6061l0.0779,0.69c0.2489,1.8398,0.4871,3.6796,0.8892,5.5193
					c0.4018-1.8397,0.6403-3.6795,0.8889-5.5193l0.0782-0.69c0.0201-0.2543,0.0593-0.3979,0.0619-0.7733
					C64.6973,32.017,64.4623,31.2985,64.1379,30.7881z"/><path fill="#F1543F" d="M73.1891,62.8204c0,5.15-4.1702,9.32-9.3201,9.32h-39.48c-2.04-1.13-3.9299-2.49-5.6599-4.03
					c-2.0801-1.85-3.9102-3.96-5.4502-6.29c-0.01-0.01,0-0.01,0-0.01c-0.9099-1.37-1.71-2.82-2.3999-4.34
					c0-0.0099,0-0.0099,0-0.0099c0.3101-0.44,0.6599-0.85,1.04-1.23c1.6399-1.64,3.8699-2.66,6.3398-2.72
					c0.0801-0.01,0.1602-0.01,0.2402-0.01H63.869c2.28,0,4.3699,0.82,5.99,2.19c0.21,0.16,0.4099,0.35,0.6001,0.54
					C72.1491,57.9104,73.1891,60.2504,73.1891,62.8204z"/><path fill="#E54433" d="M24.1291,69.4104c1.6899,1.69,4.01,2.73,6.5898,2.73h-6.3298c-2.04-1.13-3.9299-2.49-5.6599-4.03
					c-2.0801-1.85-3.9102-3.96-5.4502-6.29c-0.01-0.01,0-0.01,0-0.01c-0.9099-1.37-1.71-2.82-2.3999-4.34
					c0-0.0099,0-0.0099,0-0.0099c0.3101-0.44,0.6599-0.86,1.04-1.23c1.6399-1.64,3.8699-2.66,6.3398-2.72
					c0.0801-0.01,0.1602-0.01,0.2402-0.01h12.2197c-0.3999,0-0.7998,0.03-1.1799,0.08c-3.3398,0.42-6.1299,2.6-7.3999,5.59
					c-0.48,1.12-0.74,2.36-0.74,3.65c0,1.3,0.26,2.53,0.74,3.65C22.609,67.5704,23.289,68.5804,24.1291,69.4104z"/><path fill="#EFF1F4" d="M23.589 62.8204c0 1.42-.5601 2.69-1.45 3.65-.5.52-1.0901.94-1.76 1.22-.1401.06-.29.12-.4399.17-.1401.05-.27.09-.4102.12-.1599.05-.3298.08-.5.1-.0999.02-.2.03-.2998.03-2.0801-1.85-3.9102-3.96-5.4502-6.29.2002-1.03.7002-1.96 1.3901-2.68.9199-.96 2.1799-1.57 3.5898-1.63h.01v-.01c.04 0 .0701 0 .1101.01.04-.01.0801-.01.1201-.01h.0098v.01c.02 0 .04 0 .0601.01.1602 0 .3101.02.46.04.1501.02.3.05.4399.08.3201.07.6201.17.9102.31.6699.28 1.26.7 1.76 1.22C23.029 60.1204 23.589 61.4004 23.589 62.8204zM69.1896 62.8221c0 2.85-2.26 5.19-5.0801 5.31v.0099c-.0398 0-.0798 0-.1199-.0099-.04.0099-.0801.0099-.1199.0099v-.0099c-2.8201-.12-5.0801-2.46-5.0801-5.31 0-2.86 2.26-5.19 5.0801-5.31v-.01c.0398 0 .0798 0 .1199.01.04-.01.0801-.01.1199-.01v.01C66.9296 57.6321 69.1896 59.9621 69.1896 62.8221zM53.9882 62.8221c0 2.85-2.26 5.19-5.0801 5.31v.0099c-.0398 0-.0798 0-.1199-.0099-.04.0099-.0801.0099-.1199.0099v-.0099c-2.8201-.12-5.0801-2.46-5.0801-5.31 0-2.86 2.26-5.19 5.0801-5.31v-.01c.0398 0 .0798 0 .1199.01.04-.01.0801-.01.1199-.01v.01C51.7282 57.6321 53.9882 59.9621 53.9882 62.8221zM38.7869 62.8221c0 2.85-2.26 5.19-5.0801 5.31v.0099c-.0398 0-.0798 0-.1199-.0099-.04.0099-.0801.0099-.1199.0099v-.0099c-2.8201-.12-5.0801-2.46-5.0801-5.31 0-2.86 2.26-5.19 5.0801-5.31v-.01c.0398 0 .0798 0 .1199.01.04-.01.0801-.01.1199-.01v.01C36.5269 57.6321 38.7869 59.9621 38.7869 62.8221z"/><path fill="#CED5E0" d="M20.3791 67.6904c-.1401.06-.29.12-.4399.17-.1401.05-.27.09-.4102.12-.1599.05-.3298.08-.5.1-.0999.02-.2.03-.2998.03-2.0801-1.85-3.9102-3.96-5.4502-6.29-.01-.01 0-.01 0-.01.2002-1.03.6899-1.96 1.3901-2.67.9199-.96 2.1799-1.57 3.5898-1.63v-.01h.01c.04 0 .0701 0 .1101.01.04-.01.0801-.01.1201-.01v.01h.0098c.02 0 .04 0 .0601.01.1602 0 .3101.02.46.04.1501.02.3.05.4399.08.3201.08.6201.18.9102.31-1.8799.81-3.2 2.69-3.2 4.87S18.4992 66.8804 20.3791 67.6904zM65.9937 67.6944c-.5801.26-1.21.41-1.8801.44v.0099c-.04 0-.0798 0-.1199-.0099-.04.0099-.0801.0099-.1201.0099v-.0099c-2.8201-.12-5.0801-2.46-5.0801-5.31 0-2.86 2.26-5.19 5.0801-5.31v-.01c.04 0 .0801 0 .1201.01.04-.01.0798-.01.1199-.01v.01c.6702.03 1.3.18 1.8801.44-1.8901.8-3.21 2.68-3.21 4.87C62.7838 65.0044 64.1036 66.8844 65.9937 67.6944zM50.7838 67.6944c-.5801.26-1.2102.41-1.8801.44v.0099c-.04 0-.0801 0-.1199-.0099-.04.0099-.0801.0099-.1201.0099v-.0099c-2.8201-.12-5.0801-2.46-5.0801-5.31 0-2.86 2.26-5.19 5.0801-5.31v-.01c.04 0 .0801 0 .1201.01.0398-.01.0798-.01.1199-.01v.01c.6699.03 1.3.18 1.8801.44-1.8801.81-3.2002 2.6899-3.2002 4.87C47.5836 65.0044 48.9036 66.8844 50.7838 67.6944zM35.5836 67.6944c-.5801.26-1.21.41-1.8799.44v.0099c-.04 0-.0801 0-.1201-.0099-.04.0099-.0801.0099-.1199.0099v-.0099c-2.8201-.12-5.0801-2.46-5.0801-5.31 0-2.86 2.26-5.19 5.0801-5.31v-.01c.0398 0 .0798 0 .1199.01.04-.01.0801-.01.1201-.01v.01c.6699.03 1.2998.18 1.8799.44-1.8799.81-3.2 2.6899-3.2 4.87C32.3836 65.0044 33.7037 66.8844 35.5836 67.6944z"/><polygon fill="#2B3B4E" points="13.902 21.348 12.925 14.635 51.964 6.775 52.453 10.13"/><path fill="#22303F" d="M30.6171,16.4841l21.8359-6.3538l-0.4888-3.3555l-22.614,4.5532
				c-1.2404,0.2497-2.1326,1.3395-2.1326,2.6048v0C27.2176,15.7035,28.9169,16.9788,30.6171,16.4841z"/><circle cx="52.209" cy="8.453" r="4.653" fill="#3F596B"/><path fill="#324A5E" d="M49.9698,8.3095c0.0671-0.9723,0.7481-1.7631,1.6417-2.0135c0.4655-0.1305,0.7728-0.576,0.8041-1.0584
					l0.0007-0.0109c0.0522-0.8051-0.6958-1.4754-1.4721-1.256c-1.8465,0.522-3.2502,2.1592-3.3784,4.1834
					c-0.1341,2.0196,1.0481,3.8235,2.8136,4.5747c0.7413,0.3154,1.5674-0.2526,1.6195-1.0566v0
					c0.0314-0.4853-0.2202-0.9672-0.6683-1.1564C50.4814,10.1573,49.9083,9.2862,49.9698,8.3095z"/><polygon fill="#324A5E" points="52.063 10.685 52.063 10.685 52.36 6.217 52.352 6.217"/><circle cx="52.209" cy="8.452" r="2.241" fill="#EFF1F4"/><path fill="#CED5E0" d="M52.2437,9.9344c0.23,0.26,0.5098,0.46,0.8098,0.59c-0.8499,0.36-1.8799,0.15-2.53-0.59
					c-0.8098-0.93-0.72-2.35,0.2102-3.17c0.6599-0.58,1.5698-0.7,2.3398-0.38c-0.23,0.08-0.4399,0.21-0.6299,0.38
					C51.5235,7.5844,51.4237,9.0044,52.2437,9.9344z"/><polygon fill="#2B3B4E" points="31.885 40.348 21.651 46.993 10.915 19.939 15.192 17.161"/><path fill="#22303F" d="M23.6576,28.9199l-8.4652-11.7586l-4.2771,2.7772l5.2022,13.1091
				c0.6548,1.65,2.2502,2.7333,4.0254,2.7333h0C23.6728,35.781,25.72,31.7847,23.6576,28.9199z"/><circle cx="13.455" cy="18.55" r="6.644" fill="#3F596B"/><path fill="#324A5E" d="M10.4177,19.5618c0.3376,0.981,1.0629,1.6644,1.9092,1.9852c0.6735,0.2552,1.1267,0.8862,1.1267,1.6064
				v0.0018c0,1.1891-1.1844,2.0395-2.3,1.6279c-1.2983-0.479-2.4594-1.3675-3.2701-2.6187c-2-3.07-1.1199-7.19,1.95-9.19
				c0.4289-0.2757,0.8784-0.4972,1.3394-0.6655c1.1093-0.4051,2.2807,0.4525,2.2807,1.6334v0c0,0.7357-0.4806,1.3536-1.1646,1.6246
				c-0.2859,0.1133-0.562,0.2703-0.8208,0.4724C10.4236,16.8549,9.9865,18.3085,10.4177,19.5618z"/><path fill="#3F596B" d="M15.1937,21.2344c-1.48,0.96-3.46,0.54-4.4202-0.94c-0.96-1.48-0.5398-3.47,0.9402-4.43
				s3.46-0.54,4.4199,0.94C17.1036,18.2844,16.6737,20.2744,15.1937,21.2344z"/><circle cx="13.454" cy="18.55" r="3.2" fill="#EFF1F4"/><path fill="#CED5E0" d="M14.5137,21.5644c-1.3601,0.48-2.9202-0.01-3.7402-1.27c-0.96-1.48-0.5398-3.47,0.9402-4.43
					c0.8699-0.57,1.9199-0.65,2.8298-0.33c-0.23,0.08-0.46,0.19-0.6799,0.33c-1.48,0.96-1.8999,2.95-0.9399,4.43
					C13.3136,20.8944,13.8836,21.3244,14.5137,21.5644z"/><g><path fill="#3F596B" d="M35.353,46.6415v6.9423H18.2623v-6.9423c0-4.7227,3.8227-8.5453,8.5455-8.5453
					c2.3551,0,4.5007,0.9495,6.042,2.5032C34.3912,42.1407,35.353,44.2739,35.353,46.6415z"/><path fill="#324A5E" d="M28.7337,38.3144c-3.79,0.87-6.6101,4.27-6.6101,8.33v6.94h-3.8599v-6.94
					c0-4.73,3.8198-8.55,8.5398-8.55C27.4737,38.0944,28.1136,38.1744,28.7337,38.3144z"/></g><g><path fill="#EFF1F4" d="M30.667,46.6429c0,2.1223-1.7326,3.8549-3.8619,3.8549c-1.0368,0-1.9969-0.3966-2.7206-1.1203
					c-0.7306-0.7376-1.1341-1.7048-1.1341-2.7346c0-2.1292,1.7324-3.8618,3.8547-3.8618c1.0368,0,2.0041,0.4036,2.7277,1.1272
					C30.2633,44.6389,30.667,45.6131,30.667,46.6429z"/><path fill="#CED5E0" d="M27.4337,49.3744c0.3101,0.31,0.6599,0.56,1.04,0.74c-0.51,0.24-1.0701,0.38-1.6702,0.38
					c-1.0398,0-2-0.39-2.72-1.12c-0.73-0.73-1.1299-1.7-1.1299-2.73c0-2.1299,1.73-3.86,3.8499-3.86
					c0.5901,0,1.1702,0.13,1.6802,0.38c-1.3,0.62-2.1902,1.95-2.1902,3.48C26.2935,47.6744,26.7037,48.6444,27.4337,49.3744z"/></g><g><path fill="#FFD05B" d="M62.3726,37.9587v14.5951c0,0.5674-0.46,1.0274-1.0274,1.0274H43.0704
					c-0.5674,0-1.0274-0.46-1.0274-1.0274V37.9491c0-0.4129,0.2497-0.773,0.6097-0.9362c0.1248-0.0529,0.2689-0.0864,0.4176-0.0864
					h18.27c0.1487,0,0.288,0.0336,0.4176,0.0864h0.0048C62.1181,37.1762,62.3726,37.5362,62.3726,37.9587z"/><path fill="#F9B54C" d="M47.4973,53.5837h-4.4265c-0.5707,0-1.03-0.4593-1.03-1.03V37.9519
					c0-0.4177,0.2505-0.7725,0.6125-0.9397c0.1253-0.0556,0.2714-0.0834,0.4176-0.0834h4.4265
					c-0.1532,0-0.2924,0.0279-0.4177,0.0834c-0.3619,0.1671-0.6125,0.522-0.6125,0.9397v14.6018
					C46.4672,53.1245,46.9265,53.5837,47.4973,53.5837z"/><path fill="#A36F55" d="M54.7909,36.9253v5.7459c0,0.2383-0.3074,0.3344-0.442,0.1384l-0.6457-0.9339
					c-0.0999-0.1384-0.3036-0.1384-0.3997,0l-0.8917,1.2875c-0.0999,0.1384-0.3036,0.1384-0.4036,0l-0.8878-1.2875
					c-0.0961-0.1384-0.3036-0.1384-0.3997,0l-0.6496,0.9378c-0.1345,0.196-0.442,0.0999-0.442-0.1422v-5.7459H54.7909z"/><path fill="#915946" d="M54.7903,40.7191V42.67c0,0.2403-0.309,0.3375-0.4405,0.1373l-0.6464-0.9325
					c-0.0973-0.1373-0.3032-0.1373-0.4005,0l-0.8925,1.2872c-0.0973,0.1373-0.3032,0.1373-0.4004,0l-0.8868-1.2872
					c-0.0973-0.1373-0.3032-0.1373-0.4004,0l-0.6523,0.9383c-0.1316,0.1945-0.4405,0.103-0.4405-0.143v-1.9509
					c0,0.2403,0.309,0.3376,0.4405,0.143l0.6523-0.9383c0.0972-0.1373,0.3032-0.1373,0.4004,0l0.8868,1.2872
					c0.0972,0.1373,0.3032,0.1373,0.4004,0l0.8925-1.2872c0.0973-0.1373,0.3032-0.1373,0.4005,0l0.6464,0.9325
					C54.4813,41.0567,54.7903,40.9594,54.7903,40.7191z"/></g></svg>