<svg xmlns="http://www.w3.org/2000/svg" fill-rule="evenodd" stroke-linejoin="round" stroke-miterlimit="2" clip-rule="evenodd" viewBox="0 0 64 64"><path fill="#f05e4d" d="m 45.08244,51.05106 c 1.267,-1.267 3.017,-2.051 4.949,-2.051 1.931,0 3.681,0.784 4.948,2.051 0.391,0.391 1.024,0.391 1.415,0 0.39,-0.39 0.39,-1.024 0,-1.414 -1.63,-1.629 -3.88,-2.637 -6.363,-2.637 -2.484,0 -4.734,1.008 -6.363,2.637 -0.39,0.39 -0.39,1.024 0,1.414 0.39,0.391 1.024,0.391 1.414,0 z"/><path fill="#f05e4d" d="m 59.221284,46.806693 c -2.437328,-2.438661 -5.743986,-3.807991 -9.191977,-3.807991 -3.447992,0 -6.75465,1.36933 -9.191977,3.807991 -0.390666,0.389332 -0.390666,1.023997 0,1.41333 0.389332,0.390665 1.023997,0.390665 1.413329,0 2.063995,-2.062662 4.861322,-3.221326 7.778648,-3.221326 2.917326,0 5.714652,1.158664 7.778647,3.221326 0.389332,0.390665 1.023997,0.390665 1.41333,0 0.390665,-0.389333 0.390665,-1.023998 0,-1.41333 z"/><path fill="#d8f078" d="m 24.045956,27.000074 h 4.000004 v 15.99989 h -4.000004 z"/><path fill="#a3b55a" d="m 26.044924,27.000074 h 1.999995 v 15.99989 h -1.999995 z"/><path fill="#363c1e" d="m 29.045962,27.00006 c 0,-0.552294 -0.447734,-1.000273 -1.000001,-1.000273 h -4.000005 c -0.552267,0 -1.000001,0.447979 -1.000001,1.000273 v 15.99989 c 0,0.552294 0.447734,1.000273 1.000001,1.000273 h 4.000005 c 0.552267,0 1.000001,-0.447979 1.000001,-1.000273 z m -4.000005,0.999633 V 41.999677 H 27.04596 V 27.999693 Z"/><path fill="#90b9f0" d="m 52.954486,37.39194 c 1.104585,-1.913202 0.449356,-4.359513 -1.463867,-5.464111 -1.358331,-0.784233 -2.598248,-1.500098 -2.598248,-1.500098 l -3.99996,6.928152 2.598248,1.500098 c 1.913223,1.104598 4.359242,0.449161 5.463827,-1.464041 0,0 0,0 0,0 z"/><path fill="#1a55a3" d="M 53.820569,37.891973 C 55.2013,35.50047 54.38192,32.442476 51.990594,31.061844 50.632263,30.277612 49.392346,29.561746 49.392346,29.561746 48.914243,29.285713 48.302435,29.449398 48.026288,29.927698 l -3.99996,6.928152 c -0.276146,0.478301 -0.112155,1.090261 0.365948,1.366294 l 2.598248,1.500098 c 2.391326,1.380631 5.449314,0.561233 6.830045,-1.830269 z m -4.56209,-6.098225 -3.00001,5.196183 1.732165,1.000065 c 1.434715,0.828332 3.269331,0.336813 4.097769,-1.098088 v 0 c 0.828439,-1.434902 0.336956,-3.269763 -1.097759,-4.098095 z"/><path fill="#537fba" d="M 52.623707,27.965471 19.714757,8.9654208 13.714719,19.357788 c -1.104589,1.913202 -0.448798,4.359473 1.464309,5.464009 6.322906,3.650543 19.659807,11.35063 25.980519,14.999906 1.913107,1.104536 4.359533,0.449337 5.464122,-1.463865 2.369489,-4.104074 6.000038,-10.392367 6.000038,-10.392367 z"/><path fill="#1a55a3" d="M 52.623707,27.965471 36.044178,18.393246 28.044233,32.24955 41.159547,39.821703 c 1.913107,1.104536 4.359533,0.449337 5.464122,-1.463865 2.369489,-4.104074 6.000038,-10.392367 6.000038,-10.392367 z"/><path fill="#d8f078" d="M 50.025617,26.465591 19.71428,8.9652779 15.71432,15.89343 39.097226,29.393599 Z"/><path fill="#a3b55a" d="m 50.025617,26.465591 -13.981916,-8.072488 -3.99996,6.928152 7.053485,4.072344 z"/><path fill="#d8f078" d="m 26.556021,-6.0926418 h 38.000011 v 3.9999811 H 26.556021 Z" transform="rotate(30)"/><path fill="#a3b55a" d="m 44.555466,-6.0926418 h 20.000673 v 3.9999811 H 44.555466 Z" transform="rotate(30)"/><path fill="#0d2b52" d="m 23.67944,10.09806 1.5,-2.598 c 0.276,-0.478 0.888,-0.642 1.366,-0.366 l 32.909,19 c 0.478,0.276 0.642,0.888 0.366,1.366 l -2,3.464 c -0.276,0.478 -0.888,0.642 -1.366,0.366 l -3.464,-2 -5.5,9.526 c -1.381,2.392 -4.439,3.211 -6.83,1.831 -6.322,-3.65 -19.659,-11.351 -25.981,-15 -2.391,-1.381 -3.211,-4.439 -1.83,-6.831 2.369,-4.104 6,-10.392 6,-10.392 0.276,-0.478 0.888,-0.642 1.366,-0.366 z m -3.598,0.232 -5.5,9.526 c -0.829,1.435 -0.337,3.27 1.098,4.098 6.322,3.65 19.659,11.351 25.981,15 1.435,0.829 3.269,0.337 4.098,-1.098 l 5.5,-9.526 z m 5.33,0.768 31.177,18 1,-1.732 -31.177,-18 z"/><path fill="#d8f078" d="m 11.04544,44.000008 h 15 v 3.99996 h -15 z"/><path fill="#a3b55a" d="m 11.04544,45.999657 h 15 v 1.999985 h -15 z"/><path fill="#363c1e" d="m 27.04544,44.000004 c 0,-0.552292 -0.448,-0.99995 -1,-0.99995 h -15 c -0.552,0 -1,0.447658 -1,0.99995 v 3.99996 c 0,0.552292 0.448,0.99995 1,0.99995 h 15 c 0.552,0 1,-0.447658 1,-0.99995 z m -15,0.99995 v 2.00006 h 13 v -2.00006 z"/><path fill="#537fba" d="m 11.04544,40.00063 c 0,-1.657361 -1.3432,-3.000098 -3,-3.000098 -1.5,0 -3,0 -3,0 v 17.99987 h 3 c 1.6568,0 3,-1.343457 3,-3.000098 0,-3.329123 0,-8.670551 0,-11.999674 z"/><path fill="#1a55a3" d="m 11.04544,46.000107 h -6 v 9.000295 h 3 c 0.7956,0 1.5588,-0.316065 2.1212,-0.878359 0.5628,-0.563013 0.8788,-1.326177 0.8788,-2.121739 0,-2.617797 0,-6.000197 0,-6.000197 z"/><path fill="#0d2b52" d="m 5.04544,43.00006 c -0.265,0 -0.52,-0.105 -0.707,-0.293 -0.188,-0.187 -0.293,-0.442 -0.293,-0.707 0,-1.707 0,-5 0,-5 0,-0.552 0.448,-1 1,-1 0,0 1.5,0 3,0 2.209,0 4,1.791 4,4 v 12 c 0,2.209 -1.791,4 -4,4 h -3 c -0.552,0 -1,-0.448 -1,-1 v -5 c 0,-0.265 0.105,-0.52 0.293,-0.707 0.187,-0.188 0.442,-0.293 0.707,-0.293 0.265,0 0.52,0.105 0.707,0.293 0.188,0.187 0.293,0.442 0.293,0.707 0,1.459 0,4 0,4 h 2 c 1.105,0 2,-0.895 2,-2 v -12 c 0,-1.105 -0.895,-2 -2,-2 h -2 v 4 c 0,0.265 -0.105,0.52 -0.293,0.707 -0.187,0.188 -0.442,0.293 -0.707,0.293 z"/><path fill="#0d2b52" d="m 6.0454402,46.000061 a 1,1 0 0 1 -1,1 1,1 0 0 1 -1,-1 1,1 0 0 1 1,-1 1,1 0 0 1 1,1 z"/><path fill="#1a55a3" d="M14.04544 33.000061a1 1 0 0 1-1 1 1 1 0 0 1-1-1 1 1 0 0 1 1-1 1 1 0 0 1 1 1zM5.045 33.99886h4.0000201c.551848 0 .9999739-.448.9999739-1 0-.552-.4481259-1-.9999739-1H5.045c-.5519734 0-.9999737.448-.9999737 1 0 .552.4480003 1 .9999737 1z"/><path fill="#d8f078" d="m 32.045583,45.999901 a 6.0000029,6.0000029 0 0 1 -6.000003,6.000003 6.0000029,6.0000029 0 0 1 -6.000003,-6.000003 6.0000029,6.0000029 0 0 1 6.000003,-6.000003 6.0000029,6.0000029 0 0 1 6.000003,6.000003 z"/><path fill="#a3b55a" d="m 26.04544,40.00006 c 3.311,0 6,2.689 6,6 0,3.311 -2.689,6 -6,6 z"/><path fill="#363c1e" d="m 26.04558,38.999895 c -3.863335,0 -7.000003,3.136669 -7.000003,7.000004 0,3.863335 3.136668,7.000004 7.000003,7.000004 3.863335,0 7.000003,-3.136669 7.000003,-7.000004 0,-3.863335 -3.136668,-7.000004 -7.000003,-7.000004 z m 0,2.000001 c 2.759335,0 5.000002,2.240668 5.000002,5.000003 0,2.759335 -2.240667,5.000003 -5.000002,5.000003 -2.759335,0 -5.000002,-2.240668 -5.000002,-5.000003 0,-2.759335 2.240667,-5.000003 5.000002,-5.000003 z"/><path fill="#f05e4d" d="M47.91044 53.87906c.543-.543 1.293-.879 2.121-.879.828 0 1.577.336 2.12.879.391.39 1.024.39 1.415 0 .39-.39.39-1.024 0-1.414-.905-.905-2.155-1.465-3.535-1.465-1.38 0-2.63.56-3.535 1.465-.391.39-.391 1.024 0 1.414.39.39 1.024.39 1.414 0zM51.031242 56.000061a1 1 0 0 1-1 1 1 1 0 0 1-1-1 1 1 0 0 1 1-1 1 1 0 0 1 1 1z"/></svg>